<svg width="25" height="24" viewBox="0 0 25 24" fill="none" xmlns="http://www.w3.org/2000/svg">
<g id="vuesax/outline/tick-circle">
<g id="tick-circle">
<path id="Vector" d="M12.7324 22.75C6.80242 22.75 1.98242 17.93 1.98242 12C1.98242 6.07 6.80242 1.25 12.7324 1.25C18.6624 1.25 23.4824 6.07 23.4824 12C23.4824 17.93 18.6624 22.75 12.7324 22.75ZM12.7324 2.75C7.63242 2.75 3.48242 6.9 3.48242 12C3.48242 17.1 7.63242 21.25 12.7324 21.25C17.8324 21.25 21.9824 17.1 21.9824 12C21.9824 6.9 17.8324 2.75 12.7324 2.75Z" fill="#292D32"/>
<path id="Vector_2" d="M11.3129 15.58C11.1129 15.58 10.9229 15.5 10.7829 15.36L7.95285 12.53C7.66285 12.24 7.66285 11.76 7.95285 11.47C8.24285 11.18 8.72285 11.18 9.01285 11.47L11.3129 13.77L16.4529 8.62998C16.7429 8.33998 17.2229 8.33998 17.5129 8.62998C17.8029 8.91998 17.8029 9.39998 17.5129 9.68998L11.8429 15.36C11.7029 15.5 11.5129 15.58 11.3129 15.58Z" fill="#292D32"/>
</g>
</g>
</svg>
