<svg width="32" height="32" viewBox="-3.5 -4 32 32" fill="none" xmlns="http://www.w3.org/2000/svg">
<path fill-rule="evenodd" clip-rule="evenodd" d="M5.72534 2.80292C5.52249 2.80248 5.32696 2.8256 5.14115 2.86955C4.88643 2.30427 4.54998 1.79713 4.16731 1.41183C3.51781 0.757854 2.49345 0.5 1.07544 0.5V2.8C1.94169 2.8 2.44017 2.92548 2.55209 3.03817C2.98378 3.47284 3.3597 4.35602 3.3597 5.1L3.37118 5.26263L4.49032 13.1506C2.61772 13.2484 1.16704 14.7126 1.07684 16.543L1.07544 17.75C1.18602 19.6405 2.63188 21.0948 4.437 21.1981L4.69629 21.1985C5.16625 22.5393 6.43581 23.5 7.92822 23.5C9.42009 23.5 10.6893 22.54 11.1596 21.2H13.8338C14.3042 22.54 15.5734 23.5 17.0653 23.5C18.9576 23.5 20.4917 21.9554 20.4917 20.05C20.4917 18.1446 18.9576 16.6 17.0653 16.6C15.5734 16.6 14.3042 17.56 13.8338 18.9H11.1596C10.6893 17.56 9.42009 16.6 7.92822 16.6C6.43635 16.6 5.16717 17.56 4.6968 18.9H4.50183C3.91935 18.8648 3.39686 18.3393 3.35765 17.6811L3.3597 16.6C3.3905 16.0035 3.90942 15.481 4.55843 15.4486L6.81315 15.4492L6.82949 15.45H18.3409L18.5094 15.3961C19.3754 15.1195 20.0687 14.4629 20.3969 13.6129L20.5172 13.3731L20.9081 12.5933C21.3126 11.786 21.717 10.9774 22.1112 10.1874C23.0765 8.25223 23.6837 7.02241 23.8181 6.72041C24.5086 5.16952 23.1099 3.97583 21.6803 3.95041L5.72534 2.80292ZM17.944 13.15H6.915C6.84167 13.1295 6.78578 13.0669 6.77484 12.989L5.65567 5.10087L21.512 6.24419C21.2346 6.81389 20.7302 7.83146 20.0699 9.15503L20.0534 9.18819C19.6765 9.94366 19.2726 10.7512 18.8687 11.5574L18.4782 12.3362L18.3302 12.6312L18.2745 12.7616C18.2149 12.9289 18.0964 13.0665 17.944 13.15ZM17.0653 21.2001C17.696 21.2001 18.2074 20.6853 18.2074 20.0501C18.2074 19.415 17.696 18.9001 17.0653 18.9001C16.4345 18.9001 15.9231 19.415 15.9231 20.0501C15.9231 20.6853 16.4345 21.2001 17.0653 21.2001ZM9.07035 20.0501C9.07035 20.6853 8.559 21.2001 7.92822 21.2001C7.29744 21.2001 6.78609 20.6853 6.78609 20.0501C6.78609 19.415 7.29744 18.9001 7.92822 18.9001C8.559 18.9001 9.07035 19.415 9.07035 20.0501Z" fill="#1D1D1B"/>
<path d="M5.14115 2.86955L4.9588 2.95171L5.02659 3.10216L5.18718 3.06418L5.14115 2.86955ZM5.72534 2.80292L5.73972 2.60295L5.72577 2.60292L5.72534 2.80292ZM4.16731 1.41183L4.30921 1.27089L4.16731 1.41183ZM1.07544 0.5V0.3H0.875439V0.5H1.07544ZM1.07544 2.8H0.875439V3H1.07544V2.8ZM2.55209 3.03817L2.694 2.89724V2.89724L2.55209 3.03817ZM3.3597 5.1H3.1592L3.1602 5.11408L3.3597 5.1ZM3.37118 5.26263L3.17118 5.27675L3.17316 5.29073L3.37118 5.26263ZM4.49032 13.1506L4.50075 13.3503L4.71904 13.3389L4.68833 13.1225L4.49032 13.1506ZM1.07684 16.543L0.876854 16.5332L0.876843 16.5428L1.07684 16.543ZM1.07544 17.75L0.875084 17.7498L0.875781 17.7617L1.07544 17.75ZM4.437 21.1981L4.42555 21.3981L4.4367 21.3981L4.437 21.1981ZM4.69629 21.1985L4.88503 21.1324L4.83819 20.9988L4.69659 20.9985L4.69629 21.1985ZM11.1596 21.2V21H11.0179L10.9709 21.1338L11.1596 21.2ZM13.8338 21.2L14.0226 21.1338L13.9756 21H13.8338V21.2ZM13.8338 18.9V19.1H13.9756L14.0226 18.9662L13.8338 18.9ZM11.1596 18.9L10.9709 18.9662L11.0179 19.1H11.1596V18.9ZM4.6968 18.9V19.1H4.83856L4.88551 18.9662L4.6968 18.9ZM4.50183 18.9L4.48974 19.1H4.50183V18.9ZM3.35765 17.6811L3.15727 17.6808L3.158 17.693L3.35765 17.6811ZM3.3597 16.6L3.15972 16.5897L3.1597 16.5996L3.3597 16.6ZM4.55843 15.4486L4.55848 15.2483L4.54845 15.2488L4.55843 15.4486ZM6.81315 15.4492L6.82355 15.2492L6.8132 15.2492L6.81315 15.4492ZM6.82949 15.45L6.81909 15.65H6.82949V15.45ZM18.3409 15.45V15.65H18.372L18.4017 15.6405L18.3409 15.45ZM18.5094 15.3961L18.4486 15.2056V15.2056L18.5094 15.3961ZM20.3969 13.6129L20.2181 13.5232L20.2138 13.5318L20.2103 13.5409L20.3969 13.6129ZM20.5172 13.3731L20.696 13.4628L20.696 13.4628L20.5172 13.3731ZM20.9081 12.5933L21.0869 12.6829L21.087 12.6828L20.9081 12.5933ZM22.1112 10.1874L22.2901 10.2767L22.2901 10.2767L22.1112 10.1874ZM23.8181 6.72041L24.0008 6.80176V6.80176L23.8181 6.72041ZM21.6803 3.95041L21.6659 4.15019L21.6767 4.15038L21.6803 3.95041ZM6.915 13.15L6.86109 13.3426L6.88754 13.35H6.915V13.15ZM17.944 13.15V13.35H17.9953L18.0402 13.3254L17.944 13.15ZM6.77484 12.989L6.9729 12.9612L6.97286 12.9609L6.77484 12.989ZM5.65567 5.10087L5.67006 4.90139L5.42284 4.88356L5.45766 5.12896L5.65567 5.10087ZM21.512 6.24419L21.6918 6.33175L21.8213 6.06597L21.5264 6.0447L21.512 6.24419ZM20.0699 9.15503L19.891 9.06575L19.891 9.06575L20.0699 9.15503ZM20.0534 9.18819L20.2324 9.27748L20.2324 9.27747L20.0534 9.18819ZM18.8687 11.5574L19.0475 11.647L19.0475 11.6469L18.8687 11.5574ZM18.4782 12.3362L18.657 12.4259L18.657 12.4259L18.4782 12.3362ZM18.3302 12.6312L18.1511 12.5413L18.1463 12.5526L18.3302 12.6312ZM18.2745 12.7616L18.0903 12.6828L18.0861 12.6944L18.2745 12.7616ZM5.18718 3.06418C5.35765 3.02386 5.53758 3.00251 5.7249 3.00292L5.72577 2.60292C5.5074 2.60245 5.29626 2.62734 5.09511 2.67492L5.18718 3.06418ZM4.0254 1.55276C4.38852 1.91838 4.71225 2.40456 4.9588 2.95171L5.32349 2.78738C5.06061 2.20399 4.71144 1.67589 4.30921 1.27089L4.0254 1.55276ZM1.07544 0.7C2.47884 0.7 3.43395 0.957231 4.0254 1.55276L4.30921 1.27089C3.60167 0.558476 2.50807 0.3 1.07544 0.3V0.7ZM1.27544 2.8V0.5H0.875439V2.8H1.27544ZM2.694 2.89724C2.63404 2.83687 2.54759 2.79571 2.46425 2.76544C2.37477 2.73293 2.26348 2.70418 2.13285 2.68013C1.87111 2.63194 1.51735 2.6 1.07544 2.6V3C1.49978 3 1.82838 3.0308 2.06042 3.07352C2.17668 3.09493 2.26514 3.11868 2.32768 3.1414C2.39635 3.16635 2.41418 3.18313 2.41019 3.17911L2.694 2.89724ZM3.5597 5.1C3.5597 4.69686 3.45849 4.26453 3.30336 3.87852C3.14863 3.49351 2.93391 3.1388 2.694 2.89724L2.41019 3.17911C2.60197 3.37221 2.79105 3.67642 2.93221 4.02767C3.07296 4.37791 3.1597 4.75916 3.1597 5.1H3.5597ZM3.57068 5.24855L3.5592 5.08592L3.1602 5.11408L3.17168 5.27672L3.57068 5.24855ZM4.68833 13.1225L3.5692 5.23454L3.17316 5.29073L4.2923 13.1787L4.68833 13.1225ZM1.2766 16.5529C1.3617 14.8258 2.72982 13.4428 4.50075 13.3503L4.47988 12.9509C2.50562 13.054 0.972368 14.5995 0.877085 16.5332L1.2766 16.5529ZM1.27544 17.7502L1.27684 16.5432L0.876843 16.5428L0.87544 17.7498L1.27544 17.7502ZM4.44843 20.9985C2.74837 20.9012 1.37997 19.5312 1.2751 17.7383L0.875781 17.7617C0.992074 19.7498 2.5154 21.2885 4.42557 21.3978L4.44843 20.9985ZM4.69659 20.9985L4.43731 20.9981L4.4367 21.3981L4.69598 21.3985L4.69659 20.9985ZM7.92822 23.3C6.5241 23.3 5.32801 22.3961 4.88503 21.1324L4.50755 21.2647C5.00449 22.6824 6.34752 23.7 7.92822 23.7V23.3ZM10.9709 21.1338C10.5276 22.3968 9.33184 23.3 7.92822 23.3V23.7C9.50835 23.7 10.851 22.6831 11.3484 21.2662L10.9709 21.1338ZM13.8338 21H11.1596V21.4H13.8338V21ZM17.0653 23.3C15.6617 23.3 14.4659 22.3968 14.0226 21.1338L13.6451 21.2662C14.1425 22.6831 15.4851 23.7 17.0653 23.7V23.3ZM20.2917 20.05C20.2917 21.8462 18.8459 23.3 17.0653 23.3V23.7C19.0694 23.7 20.6917 22.0645 20.6917 20.05H20.2917ZM17.0653 16.8C18.8459 16.8 20.2917 18.2538 20.2917 20.05H20.6917C20.6917 18.0355 19.0694 16.4 17.0653 16.4V16.8ZM14.0226 18.9662C14.4659 17.7032 15.6617 16.8 17.0653 16.8V16.4C15.4851 16.4 14.1425 17.4169 13.6451 18.8338L14.0226 18.9662ZM11.1596 19.1H13.8338V18.7H11.1596V19.1ZM7.92822 16.8C9.33184 16.8 10.5276 17.7032 10.9709 18.9662L11.3484 18.8338C10.851 17.4169 9.50835 16.4 7.92822 16.4V16.8ZM4.88551 18.9662C5.32888 17.7032 6.52461 16.8 7.92822 16.8V16.4C6.34809 16.4 5.00547 17.4169 4.50809 18.8338L4.88551 18.9662ZM4.50183 19.1H4.6968V18.7H4.50183V19.1ZM3.158 17.693C3.20275 18.4441 3.79841 19.0579 4.48977 19.0996L4.5139 18.7004C4.04029 18.6717 3.59097 18.2344 3.5573 17.6692L3.158 17.693ZM3.1597 16.5996L3.15765 17.6808L3.55765 17.6815L3.5597 16.6004L3.1597 16.5996ZM4.54845 15.2488C3.80132 15.2862 3.19628 15.8864 3.15997 16.5897L3.55943 16.6103C3.58472 16.1206 4.01752 15.6759 4.56841 15.6483L4.54845 15.2488ZM6.8132 15.2492L4.55848 15.2486L4.55838 15.6486L6.8131 15.6491L6.8132 15.2492ZM6.83988 15.2503L6.82354 15.2494L6.80277 15.6489L6.81911 15.6497L6.83988 15.2503ZM18.3409 15.25H6.82949V15.65H18.3409V15.25ZM18.4486 15.2056L18.28 15.2595L18.4017 15.6405L18.5703 15.5866L18.4486 15.2056ZM20.2103 13.5409C19.9037 14.3348 19.2564 14.9475 18.4486 15.2056L18.5703 15.5866C19.4944 15.2914 20.2336 14.591 20.5835 13.685L20.2103 13.5409ZM20.3384 13.2834L20.2181 13.5232L20.5756 13.7026L20.696 13.4628L20.3384 13.2834ZM20.7294 12.5036L20.3384 13.2835L20.696 13.4628L21.0869 12.6829L20.7294 12.5036ZM21.9322 10.0981C21.5381 10.888 21.1337 11.6965 20.7293 12.5037L21.087 12.6828C21.4914 11.8755 21.8959 11.0668 22.2901 10.2767L21.9322 10.0981ZM23.6354 6.63907C23.5033 6.93586 22.8991 8.15995 21.9322 10.0981L22.2901 10.2767C23.254 8.34452 23.8641 7.10896 24.0008 6.80176L23.6354 6.63907ZM21.6767 4.15038C22.3417 4.16221 22.9938 4.44689 23.395 4.89651C23.7877 5.33667 23.9468 5.93954 23.6354 6.63907L24.0008 6.80176C24.3799 5.95039 24.1849 5.18097 23.6935 4.63021C23.2105 4.08891 22.4485 3.76404 21.6838 3.75045L21.6767 4.15038ZM5.71099 3.00241L21.6659 4.1499L21.6946 3.75093L5.73968 2.60344L5.71099 3.00241ZM6.915 13.35H17.944V12.95H6.915V13.35ZM6.57679 13.0169C6.59883 13.1738 6.71164 13.3008 6.86109 13.3426L6.96891 12.9574C6.97169 12.9582 6.97273 12.96 6.9729 12.9612L6.57679 13.0169ZM5.45766 5.12896L6.57683 13.0171L6.97286 12.9609L5.85369 5.07277L5.45766 5.12896ZM21.5264 6.0447L5.67006 4.90139L5.64129 5.30035L21.4976 6.44367L21.5264 6.0447ZM20.2489 9.24431C20.9092 7.92076 21.4139 6.90242 21.6918 6.33175L21.3322 6.15662C21.0552 6.72537 20.5513 7.74215 19.891 9.06575L20.2489 9.24431ZM20.2324 9.27747L20.2489 9.2443L19.891 9.06575L19.8744 9.09891L20.2324 9.27747ZM19.0475 11.6469C19.4515 10.8407 19.8554 10.0331 20.2324 9.27748L19.8744 9.09891C19.4976 9.85425 19.0938 10.6617 18.6899 11.4678L19.0475 11.6469ZM18.657 12.4259L19.0475 11.647L18.6899 11.4677L18.2995 12.2466L18.657 12.4259ZM18.509 12.7209L18.657 12.4259L18.2995 12.2465L18.1515 12.5415L18.509 12.7209ZM18.4584 12.8402L18.5142 12.7098L18.1463 12.5526L18.0906 12.683L18.4584 12.8402ZM18.0402 13.3254C18.2353 13.2184 18.3867 13.0424 18.4629 12.8287L18.0861 12.6944C18.043 12.8154 17.9575 12.9146 17.8479 12.9747L18.0402 13.3254ZM18.0074 20.0501C18.0074 20.5761 17.5843 21.0001 17.0653 21.0001V21.4001C17.8078 21.4001 18.4074 20.7944 18.4074 20.0501H18.0074ZM17.0653 19.1001C17.5843 19.1001 18.0074 19.5242 18.0074 20.0501H18.4074C18.4074 19.3058 17.8078 18.7001 17.0653 18.7001V19.1001ZM16.1231 20.0501C16.1231 19.5242 16.5462 19.1001 17.0653 19.1001V18.7001C16.3227 18.7001 15.7231 19.3058 15.7231 20.0501H16.1231ZM17.0653 21.0001C16.5462 21.0001 16.1231 20.5761 16.1231 20.0501H15.7231C15.7231 20.7944 16.3227 21.4001 17.0653 21.4001V21.0001ZM7.92822 21.4001C8.67075 21.4001 9.27035 20.7944 9.27035 20.0501H8.87035C8.87035 20.5761 8.44725 21.0001 7.92822 21.0001V21.4001ZM6.58609 20.0501C6.58609 20.7944 7.18569 21.4001 7.92822 21.4001V21.0001C7.40919 21.0001 6.98609 20.5761 6.98609 20.0501H6.58609ZM7.92822 18.7001C7.18569 18.7001 6.58609 19.3058 6.58609 20.0501H6.98609C6.98609 19.5242 7.40919 19.1001 7.92822 19.1001V18.7001ZM9.27035 20.0501C9.27035 19.3058 8.67075 18.7001 7.92822 18.7001V19.1001C8.44725 19.1001 8.87035 19.5242 8.87035 20.0501H9.27035Z" fill="white"/>
</svg>
