<svg width="300" height="300" viewBox="0 0 300 300" fill="none" xmlns="http://www.w3.org/2000/svg">

<path d="M88.0546 133.591H217.855C232.808 133.591 244.955 145.737 244.955 160.691V181.491C244.955 196.445 232.808 208.591 217.855 208.591H88.0546C73.1007 208.591 60.9546 196.445 60.9546 181.491V160.691C60.9546 145.737 73.1007 133.591 88.0546 133.591Z" fill="#1D1D1B" stroke="white"/>
<path d="M95.5146 162.811V160.021H210.395V162.811H95.5146Z" fill="#F9F9F9" stroke="white"/>
<mask id="path-4-inside-1_172_6200" fill="white">
<path d="M210.895 161.051H95.0146V161.781H210.895V161.051Z"/>
</mask>
<path d="M210.895 161.051H95.0146V161.781H210.895V161.051Z" fill="#BDBFC2"/>
<path d="M95.0146 161.051V160.051H94.0146V161.051H95.0146ZM210.895 161.051H211.895V160.051H210.895V161.051ZM210.895 161.781V162.781H211.895V161.781H210.895ZM95.0146 161.781H94.0146V162.781H95.0146V161.781ZM95.0146 162.051H210.895V160.051H95.0146V162.051ZM209.895 161.051V161.781H211.895V161.051H209.895ZM210.895 160.781H95.0146V162.781H210.895V160.781ZM96.0146 161.781V161.051H94.0146V161.781H96.0146Z" fill="white" mask="url(#path-4-inside-1_172_6200)"/>
<path d="M99.4246 162.011C99.4246 162.635 98.9184 163.141 98.2946 163.141C97.6707 163.141 97.1646 162.635 97.1646 162.011C97.1646 161.945 97.17 161.903 97.1751 161.879C97.1822 161.877 97.1908 161.876 97.2009 161.875C97.2922 161.864 97.4196 161.87 97.6218 161.885C97.6447 161.887 97.6683 161.889 97.6927 161.891C97.8664 161.904 98.0762 161.921 98.2946 161.921C98.513 161.921 98.7228 161.904 98.8964 161.891C98.9208 161.889 98.9444 161.887 98.9673 161.885C99.1695 161.87 99.2969 161.864 99.3882 161.875C99.3983 161.876 99.4069 161.877 99.414 161.879C99.4191 161.903 99.4246 161.945 99.4246 162.011ZM97.1443 161.886C97.1443 161.886 97.1449 161.886 97.1461 161.886L97.1443 161.886ZM99.4448 161.886C99.4447 161.886 99.4441 161.886 99.443 161.886L99.4448 161.886Z" fill="#BDBFC2" stroke="white"/>
<path d="M96.0407 179.891L97.4824 163.561H98.9405L99.8074 179.891H96.0407Z" fill="#BDBFC2" stroke="white"/>
<path d="M177.454 135.917L177.454 135.916C176.821 115.016 165.721 102.331 154.105 102.331C142.489 102.331 131.388 115.016 130.755 135.916L130.755 135.916C130.732 136.688 130.112 137.301 129.365 137.301H128.155C127.368 137.301 126.733 136.655 126.754 135.886C127.082 125.009 130.148 114.842 135.033 107.409C139.919 99.9732 146.58 95.3309 154.105 95.3309C161.629 95.3309 168.29 99.9732 173.177 107.409C178.061 114.842 181.127 125.009 181.455 135.885C181.476 136.655 180.841 137.301 180.055 137.301H178.845C178.087 137.301 177.477 136.698 177.454 135.917Z" fill="#F9F9F9" stroke="white"/>
<path d="M128.725 147.671C126.821 147.671 125.265 146.115 125.265 144.211V138.881C125.265 136.977 126.821 135.421 128.725 135.421C130.629 135.421 132.185 136.977 132.185 138.881V144.211C132.185 146.115 130.629 147.671 128.725 147.671Z" fill="#F9F9F9" stroke="white"/>
<path d="M179.475 147.671C177.571 147.671 176.015 146.115 176.015 144.211V138.881C176.015 136.977 177.571 135.421 179.475 135.421C181.379 135.421 182.935 136.977 182.935 138.881V144.211C182.935 146.115 181.379 147.671 179.475 147.671Z" fill="#F9F9F9" stroke="white"/>
<mask id="mask0_172_6200" style="mask-type:luminance" maskUnits="userSpaceOnUse" x="60" y="133" width="186" height="77">
<path d="M88.0546 133.591H217.855C232.808 133.591 244.955 145.737 244.955 160.691V181.491C244.955 196.445 232.808 208.591 217.855 208.591H88.0546C73.1007 208.591 60.9546 196.445 60.9546 181.491V160.691C60.9546 145.737 73.1007 133.591 88.0546 133.591Z" fill="white" stroke="white"/>
</mask>
<g mask="url(#mask0_172_6200)">
<path d="M242.871 150.312L242.874 150.321L242.875 150.322L242.875 150.324C248.033 164.567 247.436 176.315 245.559 184.493C244.619 188.584 243.359 191.784 242.337 193.958C241.825 195.045 241.373 195.875 241.051 196.431C240.89 196.709 240.761 196.918 240.673 197.057C240.629 197.126 240.596 197.178 240.573 197.212L240.549 197.249L240.543 197.257L240.542 197.259L240.542 197.259L240.51 197.306L240.489 197.358C238.824 201.596 234.906 204.443 229.838 206.31C224.774 208.176 218.643 209.032 212.694 209.338C206.751 209.643 201.019 209.398 196.771 209.076C195.823 209.004 194.949 208.928 194.164 208.854C207.611 206.948 216.399 201.864 221.926 195.122C228.028 187.678 230.094 178.286 230.162 169.124C230.23 159.96 228.3 150.979 226.359 144.298C225.388 140.956 224.412 138.184 223.679 136.247C223.313 135.278 223.006 134.517 222.792 133.998C222.75 133.897 222.711 133.805 222.676 133.722C228.879 132.047 233.836 135.913 237.351 140.469C239.147 142.797 240.53 145.263 241.465 147.151C241.931 148.094 242.285 148.89 242.522 149.45C242.64 149.729 242.729 149.95 242.789 150.099C242.818 150.174 242.84 150.231 242.855 150.269L242.871 150.312Z" fill="#F9F9F9" stroke="white"/>
<path d="M82.1129 133.412C82.0781 133.495 82.0396 133.587 81.9976 133.688C81.7827 134.207 81.4766 134.967 81.1099 135.936C80.3767 137.873 79.4012 140.645 78.4301 143.987C76.4891 150.666 74.5591 159.647 74.6271 168.81C74.6951 177.971 76.7614 187.363 82.8635 194.808C88.3909 201.551 97.1793 206.636 110.628 208.543C109.842 208.618 108.967 208.694 108.018 208.766C103.77 209.088 98.0385 209.333 92.0953 209.028C86.1465 208.722 80.0147 207.866 74.9515 206C69.8833 204.133 65.9653 201.286 64.3 197.048L64.2793 196.996L64.2476 196.949L64.2474 196.949L64.2463 196.947L64.2406 196.939L64.2159 196.902C64.1937 196.868 64.1601 196.816 64.1162 196.747C64.0284 196.608 63.8995 196.398 63.7382 196.121C63.4157 195.565 62.9638 194.735 62.4525 193.648C61.4297 191.474 60.1697 188.274 59.2307 184.183C57.3535 176.005 56.756 164.256 61.9147 150.011L61.9182 150.002L61.9344 149.959C61.949 149.921 61.9711 149.864 62.0006 149.789C62.0598 149.64 62.1488 149.419 62.2671 149.14C62.5038 148.58 62.8577 147.784 63.3246 146.841C64.2593 144.953 65.6421 142.487 67.438 140.159C70.9529 135.603 75.91 131.737 82.1129 133.412Z" fill="#F9F9F9" stroke="white"/>
</g>
</svg>
