<svg width="300" height="300" viewBox="0 0 300 300" fill="none" xmlns="http://www.w3.org/2000/svg">

<path d="M212.777 198.764C212.777 204.018 208.499 208.357 203.166 208.582H202.732H98.7773C92.6887 208.582 87.7227 203.705 87.7227 197.773V147.073C87.7227 146.589 87.4227 146.193 87.1504 145.909C86.8928 145.641 86.567 145.382 86.2808 145.154C86.2505 145.13 86.2207 145.106 86.1915 145.083C85.8624 144.82 85.6121 144.61 85.4694 144.427C85.4199 144.364 85.3986 144.322 85.3899 144.3C85.5825 144.009 85.9904 143.689 86.6056 143.374C87.2165 143.061 87.9728 142.782 88.7758 142.548C90.3883 142.08 92.1148 141.818 93.1045 141.818H207.395C208.635 141.818 210.212 142.068 211.562 142.59C212.911 143.112 213.905 143.855 214.241 144.765C214.229 144.797 214.205 144.848 214.16 144.919C214.055 145.088 213.892 145.288 213.694 145.521C213.673 145.547 213.651 145.573 213.629 145.599C213.459 145.799 213.271 146.02 213.124 146.228C213.039 146.347 212.957 146.475 212.895 146.608C212.835 146.736 212.777 146.9 212.777 147.082V198.764Z" fill="#1D1D1B" stroke="white"/>
<path d="M212.641 169.528L212.641 169.537V169.545C212.641 170.576 211.865 171.625 210.228 172.444C208.61 173.254 206.26 173.773 203.414 173.773H99.4592C96.3366 173.773 93.521 173.195 91.5047 172.285C90.4959 171.83 89.7089 171.301 89.1806 170.739C88.6547 170.18 88.4046 169.612 88.4046 169.054V145.664C88.4046 145.365 88.2053 145.173 88.1019 145.088C87.9793 144.987 87.8286 144.904 87.6882 144.837C87.4336 144.715 87.1132 144.597 86.8284 144.492C86.7967 144.48 86.7655 144.468 86.7348 144.457C86.679 144.436 86.6254 144.416 86.5743 144.397C86.7448 144.344 86.9449 144.29 87.1742 144.236C87.8008 144.088 88.5717 143.957 89.3844 143.849C91.0118 143.632 92.764 143.509 93.7864 143.509H208.077C209.348 143.509 210.956 143.628 212.336 143.874C213.027 143.997 213.644 144.15 214.128 144.329C214.352 144.412 214.53 144.495 214.668 144.573C214.622 144.599 214.572 144.626 214.52 144.655C214.498 144.667 214.475 144.679 214.453 144.691C214.284 144.782 214.093 144.885 213.942 144.983C213.856 145.039 213.76 145.107 213.679 145.186C213.623 145.241 213.465 145.404 213.459 145.651L212.641 169.528Z" fill="#F9F9F9" stroke="white"/>
<path d="M179.089 208.543C179.43 208.497 179.782 208.45 180.143 208.402C185.213 207.73 192.212 206.888 199.93 206.207C202.053 206.02 203.771 204.774 205.147 202.848C206.518 200.93 207.58 198.297 208.403 195.228C210.052 189.086 210.781 181.053 211.027 173.099C211.273 165.138 211.035 157.223 210.736 151.3C210.586 148.338 210.421 145.873 210.293 144.149C210.23 143.298 210.177 142.628 210.138 142.166L212.641 142.864L212.645 143.027C212.653 143.376 212.665 143.888 212.68 144.544C212.71 145.855 212.752 147.738 212.8 150.025C212.896 154.6 213.018 160.792 213.117 167.263C213.316 180.222 213.427 194.25 213.079 198.679C212.743 202.955 210.559 205.374 208.46 206.739C207.405 207.425 206.368 207.846 205.594 208.095C205.208 208.219 204.889 208.3 204.669 208.349C204.559 208.374 204.474 208.39 204.418 208.401C204.399 208.404 204.384 208.407 204.371 208.409L179.089 208.543Z" fill="#F9F9F9" stroke="white"/>
<path d="M88.2047 142.864L90.7073 142.166C90.6689 142.628 90.615 143.298 90.5521 144.149C90.4244 145.873 90.2594 148.338 90.1097 151.3C89.8105 157.223 89.5724 165.138 89.8184 173.099C90.0642 181.053 90.7939 189.086 92.4421 195.228C93.2657 198.297 94.3277 200.93 95.6987 202.848C97.0746 204.774 98.7927 206.02 100.915 206.207C108.633 206.888 115.633 207.73 120.702 208.402C121.165 208.464 121.611 208.524 122.04 208.582H97.5181C97.5033 208.579 97.484 208.576 97.4602 208.571C97.3956 208.56 97.2986 208.541 97.1738 208.514C96.9239 208.459 96.5629 208.371 96.1262 208.238C95.2514 207.972 94.0807 207.527 92.8921 206.815C90.5224 205.396 88.1005 202.932 87.7667 198.679C87.419 194.25 87.5293 180.222 87.7284 167.263C87.8278 160.792 87.9491 154.6 88.0455 150.025C88.0937 147.738 88.1357 145.855 88.1657 144.544C88.1806 143.888 88.1926 143.376 88.2008 143.027L88.2047 142.864Z" fill="#F9F9F9" stroke="white"/>
<path d="M202.732 172.082H98.7773C95.6547 172.082 92.8391 171.504 90.8228 170.594C89.814 170.139 89.027 169.61 88.4987 169.048C87.9728 168.489 87.7227 167.921 87.7227 167.364V143.973C87.7227 143.674 87.5234 143.482 87.42 143.397C87.2975 143.296 87.1467 143.213 87.0064 143.146C86.7517 143.024 86.4313 142.906 86.1465 142.801C86.1148 142.789 86.0836 142.778 86.0529 142.766C85.9971 142.746 85.9435 142.726 85.8924 142.706C86.0629 142.653 86.263 142.599 86.4923 142.545C87.1189 142.397 87.8898 142.267 88.7025 142.158C90.3299 141.941 92.0821 141.818 93.1045 141.818H207.395C208.666 141.818 210.275 141.937 211.654 142.183C212.345 142.306 212.963 142.459 213.446 142.638C213.67 142.721 213.848 142.804 213.986 142.882C213.94 142.908 213.891 142.935 213.838 142.964C213.816 142.976 213.794 142.988 213.771 143C213.602 143.091 213.411 143.194 213.26 143.292C213.174 143.348 213.078 143.416 212.997 143.495C212.941 143.551 212.777 143.718 212.777 143.973V167.818C212.777 168.311 212.556 168.82 212.081 169.324C211.604 169.832 210.891 170.312 209.974 170.726C208.14 171.555 205.577 172.082 202.732 172.082Z" fill="#1D1D1B" stroke="white"/>
<path d="M85.4614 143.545C85.6058 127.792 92.563 111.651 104.636 99.2119L104.636 99.2117C117.367 86.0833 133.795 78.8636 150.895 78.8636C167.993 78.8636 183.945 86.09 196.12 99.2217C207.52 111.524 214.103 127.658 214.239 143.545H212.502C212.224 113.679 187.029 80.5909 150.886 80.5909C132.717 80.5909 116.791 88.9742 105.415 101.081C94.1697 113.05 87.3392 128.69 87.1889 143.545H85.4614Z" fill="#1D1D1B" stroke="white"/>
<path d="M214.205 159.3C213.263 159.3 212.486 158.524 212.486 157.582V144.291C212.486 143.349 213.263 142.573 214.205 142.573C215.147 142.573 215.923 143.349 215.923 144.291V157.582C215.923 158.524 215.147 159.3 214.205 159.3Z" fill="white" stroke="white"/>
<path d="M85.7955 159.145C84.8534 159.145 84.0773 158.369 84.0773 157.427V144.136C84.0773 143.194 84.8534 142.418 85.7955 142.418C86.7375 142.418 87.5136 143.194 87.5136 144.136V157.427C87.5136 158.369 86.7375 159.145 85.7955 159.145Z" fill="white" stroke="white"/>
<path d="M137.577 169.418V164.836H162.05V169.418H137.577Z" fill="white" stroke="white"/>
</svg>
