<svg width="300" height="300" viewBox="0 0 300 300" fill="none" xmlns="http://www.w3.org/2000/svg">
<g clip-path="url(#clip0_101_781)">

<path d="M146.011 -20.9945L146.011 -20.9943C145.669 -20.9069 145.295 -20.8105 144.843 -20.584C144.389 -20.3575 143.84 -19.9918 143.181 -19.3543C141.855 -18.0724 140.096 -15.7046 137.794 -11.2043C133.189 -2.20595 126.471 15.1928 116.681 49.1169C107.775 79.9918 100.308 110.846 99.3455 114.861L102.362 115.901L102.362 115.9C102.425 115.641 102.51 115.29 102.616 114.854C102.857 113.861 103.207 112.424 103.654 110.606C104.548 106.97 105.831 101.81 107.407 95.6349C110.56 83.285 114.886 66.8707 119.622 50.4551L120.102 50.5937L119.622 50.455C128.354 20.201 134.563 3.49022 138.827 -5.72408C140.959 -10.3301 142.612 -13.0811 143.863 -14.7184C145.099 -16.3355 145.988 -16.9268 146.613 -17.0901C146.725 -17.122 146.971 -17.19 147.273 -17.0578C147.538 -16.9416 147.777 -16.7012 148.024 -16.3471C148.024 -16.3471 148.024 -16.3471 148.024 -16.3471L147.614 -16.0609C159.299 0.672421 195.392 109.88 198.083 118.042L146.011 -20.9945ZM146.011 -20.9945C147.596 -21.4014 149.129 -20.7597 150.373 -18.9805C153.459 -14.5574 158.109 -4.1798 163.387 9.04479C168.657 22.2462 174.529 38.2231 180.062 53.7947C190.683 83.6881 200.047 112.073 201.478 116.427L198.538 117.826L146.011 -20.9945Z" fill="#1D1D1B" stroke="white"/>
<path d="M203.474 129.114L203.528 129.202L203.595 129.161C203.528 129.202 203.528 129.202 203.528 129.202L203.529 129.203L203.532 129.209L203.546 129.232C203.555 129.247 203.567 129.267 203.583 129.293C203.589 129.303 203.595 129.315 203.603 129.327C203.653 129.411 203.727 129.538 203.823 129.706C204.015 130.041 204.294 130.538 204.639 131.184C205.329 132.475 206.283 134.361 207.336 136.731C209.443 141.472 211.941 148.142 213.511 155.865C216.643 171.261 216.08 190.781 201.45 207.564L150 208.591L98.5497 207.564C83.9197 190.774 83.3569 171.255 86.4881 155.86C88.0587 148.138 90.5568 141.469 92.6632 136.729C93.716 134.36 94.6702 132.475 95.3603 131.183C95.7053 130.538 95.9842 130.04 96.1764 129.706C96.2724 129.538 96.3468 129.411 96.3969 129.327C96.4219 129.285 96.4409 129.253 96.4534 129.232L96.4674 129.209L96.4708 129.203L96.4715 129.202C96.4716 129.202 96.4716 129.202 96.0448 128.941L96.4716 129.202L96.5255 129.114L96.5399 129.011L98.7544 113.28L150 112.455L201.245 113.28L203.46 129.011L203.474 129.114Z" fill="#F9F9F9" stroke="white"/>
<path d="M201.763 124.469L201.81 124.554L202.247 124.309C201.81 124.554 201.81 124.554 201.811 124.554L201.811 124.555L201.815 124.561L201.828 124.586C201.84 124.608 201.859 124.641 201.883 124.686C201.932 124.775 202.004 124.909 202.097 125.086C202.283 125.439 202.553 125.964 202.888 126.645C203.556 128.008 204.481 129.998 205.501 132.498C207.541 137.499 209.962 144.536 211.484 152.685C214.518 168.932 213.972 189.533 199.801 207.239L150 208.322L100.199 207.239C86.0281 189.526 85.4815 168.926 88.516 152.68C90.038 144.532 92.4585 137.496 94.499 132.496C95.519 129.996 96.4435 128.008 97.1121 126.645C97.4464 125.964 97.7167 125.439 97.9029 125.086C97.996 124.909 98.0681 124.775 98.1167 124.686C98.1409 124.641 98.1594 124.608 98.1716 124.586L98.1852 124.561L98.1884 124.555L98.1892 124.554C98.1893 124.554 98.1893 124.554 97.7531 124.309L98.1893 124.554L98.2366 124.469L98.249 124.373L100.396 107.768L150 106.898L199.604 107.768L201.751 124.373L201.763 124.469Z" fill="#1D1D1B" stroke="white"/>
<path d="M98.5042 115.226H202.34L202.343 115.24C202.743 117.734 204.504 130.763 200.332 143.555C198.249 149.943 194.693 156.253 188.765 161.171C182.839 166.086 174.509 169.639 162.826 170.456L162.568 170.474L162.434 170.695C160.409 174.019 156.69 176.246 152.597 176.246C148.501 176.246 144.917 174.104 142.88 170.886L142.732 170.654H142.457H139.4L139.323 170.544L139.08 170.53C127.104 169.873 118.561 166.397 112.483 161.507C106.402 156.615 102.75 150.279 100.608 143.846C96.316 130.961 98.1016 117.753 98.502 115.24L98.5042 115.226Z" fill="#F9F9F9" stroke="white"/>
<path d="M98.2807 112.617H202.117L202.119 112.63C202.52 115.144 204.305 128.351 200.014 141.236C197.871 147.67 194.219 154.005 188.138 158.897C182.06 163.787 173.518 167.264 161.541 167.921L161.299 167.934L161.222 168.044H139.176L139.099 167.934L138.856 167.921C126.88 167.264 118.338 163.787 112.259 158.897C106.178 154.005 102.527 147.67 100.384 141.236C96.0925 128.351 97.8781 115.144 98.2785 112.63L98.2807 112.617Z" fill="#1D1D1B" stroke="white"/>
<path d="M163.89 162.12C163.89 168.48 158.734 173.636 152.373 173.636C146.013 173.636 140.857 168.48 140.857 162.12C140.857 155.76 146.013 150.604 152.373 150.604C158.734 150.604 163.89 155.76 163.89 162.12Z" fill="#1D1D1B" stroke="white"/>
</g>
<defs>
<clipPath id="clip0_101_781">
<rect width="300" height="300" rx="150" fill="white"/>
</clipPath>
</defs>
</svg>
