<svg width="300" height="300" viewBox="0 0 300 300" fill="none" xmlns="http://www.w3.org/2000/svg">

<path d="M198.54 134.717L198.964 134.452C198.54 134.717 198.54 134.718 198.541 134.718L198.541 134.719L198.543 134.721L198.55 134.732L198.576 134.775C198.6 134.813 198.635 134.868 198.682 134.941C198.775 135.088 198.913 135.304 199.094 135.584C199.455 136.143 199.988 136.958 200.674 137.979C202.046 140.023 204.03 142.896 206.481 146.217C211.38 152.855 218.154 161.295 225.638 168.473C229.307 171.995 231.561 176.33 232.898 179.8C233.565 181.532 234.002 183.043 234.271 184.119C234.406 184.657 234.499 185.085 234.558 185.378C234.587 185.524 234.608 185.637 234.622 185.712C234.624 185.724 234.626 185.736 234.628 185.746C234.628 185.748 234.628 185.749 234.628 185.751C234.369 187.597 233.693 188.998 232.728 190.055C231.746 191.129 230.438 191.875 228.89 192.355C225.778 193.32 221.771 193.187 217.761 192.551C213.765 191.917 209.825 190.792 206.88 189.824C205.409 189.34 204.188 188.896 203.337 188.573C202.911 188.412 202.577 188.281 202.351 188.19C202.237 188.145 202.151 188.11 202.093 188.086L202.028 188.06L202.011 188.053L202.008 188.051L202.007 188.051C202.007 188.051 202.007 188.051 201.814 188.512L202.007 188.051L201.277 187.747L201.315 188.536L202.095 205.016L202.111 205.363L202.443 205.469L202.594 204.992C202.443 205.469 202.443 205.469 202.443 205.469L202.444 205.469L202.448 205.471L202.461 205.475L202.51 205.489C202.552 205.502 202.613 205.52 202.693 205.542C202.853 205.587 203.088 205.65 203.392 205.724C204 205.87 204.885 206.058 206.003 206.227C208.238 206.564 211.408 206.827 215.16 206.528C222.669 205.931 232.5 203.085 241.801 194.122C246.647 189.453 246.057 181.936 242.753 173.576C239.431 165.17 233.277 155.666 226.573 146.749C219.863 137.826 212.579 129.461 206.975 123.329C204.172 120.263 201.789 117.753 200.106 116.01C199.264 115.138 198.597 114.458 198.141 113.996C197.912 113.765 197.737 113.588 197.618 113.469L197.483 113.334L197.448 113.299L197.44 113.291L197.437 113.288C197.437 113.288 197.437 113.288 197.437 113.288L197.428 113.279L196.451 112.302L196.576 113.678L198.466 134.498L198.477 134.616L198.54 134.717Z" fill="#1D1D1B" stroke="white"/>
<path d="M106.924 84.4324C106.924 84.4324 121.734 78.1024 135.894 84.0624C150.054 90.0224 160.794 81.3924 169.894 83.0424C179.184 84.7224 179.424 86.5924 179.424 86.5924L174.644 101.292L102.734 102.832L106.924 84.4324Z" fill="#1D1D1B"/>
<path d="M107.294 84.7901C103.695 88.5535 100.122 94.46 96.7518 101.361C93.3827 108.26 90.2342 116.117 87.4782 123.74C81.9663 138.986 78.0356 153.268 77.0581 157.028C76.5883 158.836 76.496 161.357 76.665 164.365C76.8334 167.364 77.2583 170.805 77.7988 174.432C78.2523 177.477 78.7892 180.663 79.3215 183.821C80.0524 188.158 80.7745 192.443 81.2602 196.239L80.7642 196.302L81.2602 196.239C82.0873 202.708 84.4064 205.48 86.4005 206.671C87.4077 207.272 88.3635 207.49 89.0646 207.558C89.4153 207.592 89.7011 207.589 89.8959 207.578C89.9932 207.572 90.0675 207.564 90.1154 207.559C90.1274 207.557 90.1377 207.556 90.1463 207.555C90.1549 207.553 90.1618 207.552 90.1669 207.552L90.1761 207.55L90.1768 207.55L90.1769 207.55L90.1774 207.55L90.1779 207.55L90.225 207.541L90.2747 207.542L90.2642 208.042C90.2747 207.542 90.2751 207.542 90.2759 207.542L90.2795 207.543L90.2941 207.543L90.3522 207.544L90.5817 207.549L91.4774 207.567C92.2623 207.583 93.4141 207.606 94.8816 207.634C97.8166 207.691 102.015 207.77 107.066 207.857C117.169 208.032 130.687 208.242 144.343 208.382C158 208.522 171.794 208.592 182.452 208.487C187.781 208.435 192.322 208.339 195.667 208.186C197.34 208.11 198.708 208.019 199.724 207.914C200.232 207.862 200.645 207.806 200.961 207.748C201.291 207.687 201.469 207.631 201.54 207.595C202.475 207.127 203.432 205.824 204.32 203.443C205.198 201.092 205.968 197.804 206.611 193.54C207.897 185.017 208.664 172.679 208.804 156.338C208.943 140.118 202.018 123.464 195.022 110.832C191.528 104.523 188.024 99.2319 185.395 95.5185C184.08 93.662 182.985 92.2006 182.218 91.204C181.835 90.7058 181.534 90.3238 181.33 90.0668C181.227 89.9383 181.149 89.8411 181.096 89.7763L181.037 89.7034L181.023 89.6854L181.019 89.6811L181.018 89.6801C181.018 89.6799 181.018 89.6799 181.404 89.3624L181.018 89.6799L180.984 89.6387L107.294 84.7901ZM107.294 84.7901C107.334 84.7661 107.387 84.7361 107.45 84.7038C107.609 84.6212 107.818 84.5315 108.036 84.4828C108.256 84.4335 108.449 84.4343 108.603 84.4896C108.742 84.5391 108.899 84.6497 109.034 84.9289L109.826 86.5777L109.982 84.7569L109.982 84.7564L109.982 84.7563L109.982 84.7558L109.982 84.7555L109.982 84.7551L109.983 84.7492C109.984 84.7418 109.985 84.7293 109.988 84.7126C109.992 84.679 110 84.6296 110.013 84.5711C110.039 84.4497 110.081 84.3099 110.142 84.193C110.205 84.0724 110.264 84.0233 110.301 84.0064C110.318 83.9983 110.392 83.9661 110.583 84.0501C111.192 84.3179 115.734 86.0252 121.622 87.6763C127.507 89.3268 134.792 90.9368 140.87 90.9823C146.97 91.028 153.703 89.0341 159.13 87.3435C159.479 87.235 159.821 87.1278 160.158 87.0225C162.462 86.302 164.485 85.6694 166.097 85.3042C167.022 85.0949 167.781 84.981 168.363 84.9816C168.963 84.9823 169.263 85.1054 169.398 85.2428C170.449 86.3133 170.819 87.2684 170.935 87.9657C171.035 88.5668 170.954 88.9926 170.909 89.2302C170.901 89.2717 170.894 89.3075 170.89 89.3375C170.878 89.4163 170.876 89.5533 170.962 89.6905C171.051 89.8317 171.181 89.8919 171.269 89.915C171.407 89.9513 171.528 89.9209 171.559 89.9131L171.561 89.9126C171.652 89.8897 171.75 89.8463 171.829 89.8092C172.001 89.7277 172.239 89.5976 172.512 89.4427C172.764 89.2999 173.08 89.1161 173.425 88.9158C173.799 88.6985 174.207 88.4617 174.602 88.2369C175.392 87.7869 176.214 87.3361 176.919 87.0044C177.271 86.8383 177.584 86.7068 177.843 86.6203C178.117 86.5287 178.275 86.5069 178.341 86.5112C178.502 86.522 178.753 86.6434 179.079 86.9424C179.39 87.2271 179.703 87.6115 179.988 88.0113C180.271 88.408 180.515 88.8044 180.688 89.103C180.775 89.2518 180.844 89.3753 180.89 89.461C180.913 89.5038 180.931 89.5371 180.943 89.5594L180.956 89.5843L180.959 89.5902L180.96 89.5914L180.96 89.5915L107.294 84.7901Z" fill="#1D1D1B" stroke="white"/>
<path d="M109.484 84.7124C109.484 84.7124 99.8942 150.642 86.0542 155.232L109.484 84.7124Z" fill="#F4F4F4"/>
<path d="M171.384 89.4124C171.384 89.4124 177.714 153.272 187.774 158.852C197.834 164.442 198.954 155.222 198.954 155.222C198.954 155.222 194.624 161.232 189.314 155.222L185.164 113.722" fill="#F4F4F4"/>
<path d="M190.854 118.332C190.854 118.332 209.854 144.322 204.544 155.222L190.854 118.332Z" fill="#F4F4F4"/>
<path d="M115.914 93.9624C117.6 93.9624 118.974 92.5885 118.974 90.9024C118.974 89.2163 117.6 87.8424 115.914 87.8424C114.228 87.8424 112.854 89.2163 112.854 90.9024C112.854 92.5885 114.228 93.9624 115.914 93.9624Z" fill="#1D1D1B" stroke="white" stroke-miterlimit="10"/>
<path d="M137.454 100.902C139.139 100.902 140.514 99.5398 140.514 97.8424C140.514 96.1562 139.14 94.7823 137.454 94.7823C135.768 94.7823 134.394 96.1562 134.394 97.8424C134.394 99.5285 135.768 100.902 137.454 100.902Z" fill="#1D1D1B" stroke="white" stroke-miterlimit="10"/>
<path d="M154.884 99.9723C156.57 99.9723 157.944 98.5984 157.944 96.9123C157.944 95.2262 156.57 93.8523 154.884 93.8523C153.198 93.8523 151.824 95.2261 151.824 96.9123C151.824 98.5984 153.198 99.9723 154.884 99.9723Z" fill="#1D1D1B" stroke="white" stroke-miterlimit="10"/>
<mask id="path-11-outside-1_172_6188" maskUnits="userSpaceOnUse" x="171.034" y="93.5217" width="6" height="9" fill="black">
<rect fill="white" x="171.034" y="93.5217" width="6" height="9"/>
<path d="M172.034 95.5724C173.424 95.2924 174.774 96.2024 175.044 97.5824C175.324 98.9724 174.054 100.322 172.674 100.592"/>
</mask>
<path d="M172.034 95.5724C173.424 95.2924 174.774 96.2024 175.044 97.5824C175.324 98.9724 174.054 100.322 172.674 100.592" fill="#1D1D1B"/>
<path d="M175.044 97.5824L174.063 97.7744L174.064 97.7799L175.044 97.5824ZM172.232 96.5527C173.077 96.3824 173.899 96.9372 174.063 97.7744L176.026 97.3904C175.649 95.4676 173.772 94.2023 171.837 94.5921L172.232 96.5527ZM174.064 97.7799C174.13 98.1057 174.027 98.4915 173.714 98.8665C173.398 99.2448 172.935 99.5224 172.482 99.611L172.866 101.574C173.793 101.392 174.655 100.86 175.249 100.148C175.846 99.4333 176.239 98.449 176.024 97.3849L174.064 97.7799Z" fill="white" mask="url(#path-11-outside-1_172_6188)"/>
<path d="M105.944 89.0723C105.784 90.2623 106.304 91.3223 107.284 92.0123C108.334 92.7523 109.694 92.8423 110.924 92.9523C112.264 93.0723 113.464 92.9723 114.734 92.4823C115.334 92.2523 115.914 92.0423 116.564 91.9823C117.214 91.9223 117.764 91.8123 118.364 91.5523C119.244 91.1623 118.484 89.8723 117.604 90.2523C116.724 90.6323 115.754 90.5123 114.874 90.8223C113.874 91.1723 113.014 91.5323 111.944 91.5123C110.964 91.4923 109.904 91.4323 108.964 91.1523C108.264 90.9423 107.284 90.3423 107.404 89.4723C107.464 89.0723 107.304 88.6723 106.884 88.5523C106.534 88.4523 106.014 88.6723 105.964 89.0723H105.944Z" fill="#D5D5D5"/>
<path d="M172.914 98.5423C173.504 98.6623 173.804 99.0323 174.294 99.3323C174.864 99.6823 175.544 99.8923 176.184 100.042C177.594 100.382 179.074 100.462 180.514 100.502C183.124 100.572 185.744 100.212 187.854 98.5523C188.614 97.9523 187.544 96.9023 186.794 97.4923C184.914 98.9723 182.354 99.0823 180.064 98.9823C178.774 98.9323 177.464 98.8523 176.214 98.5023C175.624 98.3323 175.124 98.1123 174.644 97.7323C174.234 97.4123 173.824 97.1923 173.314 97.0923C172.374 96.9023 171.964 98.3523 172.914 98.5423Z" fill="#D5D5D5"/>
<path d="M156.684 96.0624C154.234 96.8624 152.744 98.6624 151.404 100.772C149.984 103.012 148.194 105.072 147.154 107.522C145.934 110.382 145.704 113.582 145.504 116.652C145.254 120.342 145.294 124.042 145.534 127.722C145.774 131.402 146.174 134.902 146.684 138.472C147.194 142.042 147.674 145.592 148.634 149.042C150.494 155.742 154.364 161.602 157.114 167.932C160.104 174.812 161.744 183.252 156.974 189.762C156.404 190.542 157.704 191.292 158.274 190.522C161.894 185.582 162.124 179.112 160.624 173.362C158.904 166.782 155.174 161.012 152.384 154.872C149.394 148.282 148.424 141.102 147.594 133.972C146.784 126.962 146.474 119.842 147.364 112.822C147.584 111.102 147.934 109.382 148.664 107.792C149.284 106.452 150.154 105.282 151.024 104.102C152.814 101.662 153.974 98.5324 157.084 97.5124C157.994 97.2124 157.604 95.7624 156.684 96.0624Z" fill="#D5D5D5"/>
<path d="M148.874 110.292H142.994C142.265 110.292 141.674 110.883 141.674 111.612V123.712C141.674 124.441 142.265 125.032 142.994 125.032H148.874C149.603 125.032 150.194 124.441 150.194 123.712V111.612C150.194 110.883 149.603 110.292 148.874 110.292Z" fill="#D5D5D5"/>
<path d="M135.144 98.0224C137.704 99.2424 139.284 101.452 140.654 103.862C142.244 106.672 143.914 109.562 144.534 112.762C145.864 119.712 142.644 126.962 140.614 133.472C136.584 146.432 132.904 159.962 134.714 173.652C135.184 177.212 136.024 180.732 137.324 184.082C138.434 186.932 141.424 191.352 138.454 194.012C137.734 194.662 138.794 195.712 139.514 195.072C141.774 193.052 141.374 189.892 140.344 187.352C139.024 184.112 137.694 181.012 136.914 177.572C135.334 170.552 135.434 163.202 136.494 156.122C137.554 149.042 139.694 141.482 141.914 134.332C143.984 127.652 147.144 120.412 146.124 113.282C145.594 109.592 143.754 106.302 141.944 103.102C140.464 100.492 138.674 98.0524 135.904 96.7224C135.034 96.3124 134.274 97.6024 135.144 98.0224Z" fill="#D5D5D5"/>
<path d="M139.904 194.812C139.904 195.502 139.344 196.072 138.644 196.072C137.944 196.072 137.384 195.512 137.384 194.812C137.384 194.112 137.944 193.552 138.644 193.552C139.344 193.552 139.904 194.112 139.904 194.812Z" fill="#D5D5D5"/>
<path d="M158.344 190.812C158.344 191.502 157.784 192.072 157.084 192.072C156.384 192.072 155.824 191.512 155.824 190.812C155.824 190.112 156.384 189.552 157.084 189.552C157.784 189.552 158.344 190.112 158.344 190.812Z" fill="#D5D5D5"/>
<path d="M76.1842 159.132C76.1842 159.132 102.884 200.272 96.3942 207.102C95.3842 208.162 86.0542 207.052 86.0542 207.052C86.0542 207.052 81.6142 202.112 81.0142 197.982C80.4142 193.852 76.0742 160.652 76.0742 160.652" fill="#F4F4F4"/>
<path d="M208.604 171.572C208.604 171.572 184.254 201.792 190.734 208.632C191.744 209.692 201.074 208.582 201.074 208.582C201.074 208.582 205.514 203.632 206.114 199.512C206.714 195.382 208.874 173.252 208.874 173.252" fill="#F4F4F4"/>
</svg>
