<svg width="300" height="300" viewBox="0 0 300 300" fill="none" xmlns="http://www.w3.org/2000/svg">

<path d="M202.722 130.863L200.864 110.392C201.327 110.862 201.947 111.496 202.7 112.277C204.471 114.111 206.981 116.752 209.931 119.981C215.834 126.439 223.498 135.242 230.553 144.625C237.614 154.014 244.042 163.957 247.497 172.699C250.97 181.488 251.349 188.822 246.735 193.268C237.116 202.537 226.977 205.463 219.248 206.078C215.38 206.385 212.114 206.115 209.817 205.768C208.669 205.594 207.764 205.402 207.149 205.254C206.901 205.194 206.7 205.141 206.549 205.1L205.779 188.84C205.978 188.918 206.214 189.009 206.486 189.112C207.396 189.457 208.699 189.931 210.269 190.447C213.405 191.479 217.62 192.683 221.914 193.365C226.194 194.044 230.612 194.213 234.125 193.124C235.889 192.577 237.442 191.707 238.63 190.408C239.82 189.106 240.617 187.401 240.907 185.229L240.917 185.157L240.905 185.084L240.411 185.163C240.905 185.084 240.905 185.084 240.905 185.084L240.905 185.083L240.905 185.081L240.903 185.074L240.899 185.048C240.895 185.025 240.889 184.992 240.882 184.949C240.866 184.863 240.843 184.738 240.81 184.576C240.745 184.252 240.644 183.784 240.498 183.2C240.205 182.031 239.732 180.396 239.01 178.521C237.567 174.777 235.119 170.052 231.1 166.194L231.1 166.194C223.26 158.675 216.15 149.819 210.995 142.835C208.419 139.344 206.334 136.324 204.893 134.178C204.173 133.105 203.614 132.25 203.235 131.664C203.045 131.371 202.901 131.145 202.804 130.993C202.771 130.941 202.744 130.898 202.722 130.863Z" stroke="white"/>
<path d="M103.414 108.043L94.832 107.721L92.6359 102.819H100.225C100.243 102.848 100.261 102.879 100.28 102.91C100.394 103.101 100.549 103.359 100.731 103.659C101.096 104.26 101.57 105.036 102.04 105.803C102.51 106.571 102.976 107.33 103.324 107.897L103.414 108.043Z" fill="#1D1D1B" stroke="white"/>
<path d="M191.351 102.46H198.94L196.744 107.362L188.163 107.685L188.252 107.538C188.601 106.971 189.067 106.212 189.536 105.445C190.006 104.677 190.48 103.901 190.845 103.3C191.027 103 191.183 102.742 191.297 102.551C191.315 102.52 191.333 102.49 191.351 102.46Z" fill="#1D1D1B" stroke="white"/>
<path d="M89.2885 109.849H202.224C208.943 109.849 214.39 115.296 214.39 122.014V196.425C214.39 203.144 208.943 208.591 202.224 208.591H89.2885C82.5696 208.591 77.1228 203.144 77.1228 196.425V122.014C77.1228 115.296 82.5696 109.849 89.2885 109.849Z" fill="#1D1D1B" stroke="white"/>
<path d="M214.33 162.474C213.719 168.603 208.507 173.433 202.224 173.433H201.718L201.724 173.937V173.937V173.937L201.724 173.938L201.724 173.941C201.724 173.946 201.724 173.955 201.723 173.969C201.723 173.995 201.72 174.039 201.715 174.098C201.705 174.216 201.684 174.396 201.638 174.629C201.547 175.096 201.359 175.776 200.971 176.601C200.195 178.247 198.61 180.487 195.361 182.75C188.851 187.286 175.652 191.915 148.943 191.967C122.875 192.02 108.053 187.396 99.7663 182.802C95.6242 180.506 93.1117 178.217 91.6406 176.517C90.9047 175.666 90.4282 174.962 90.138 174.477C89.9929 174.235 89.8944 174.047 89.8333 173.922C89.8027 173.86 89.7815 173.813 89.7685 173.784C89.762 173.77 89.7576 173.759 89.7551 173.753L89.7528 173.748L89.7527 173.747L89.7526 173.747L89.6278 173.433H89.2885C83.0035 173.433 77.7902 168.6 77.1821 162.468C78.3193 164.488 79.9914 166.242 81.9115 167.606C84.4593 169.414 87.4801 170.561 90.3448 170.716C92.1394 174.169 102.648 189.273 148.437 189.273H148.438H148.439H148.44H148.44H148.441H148.442H148.443H148.444H148.444H148.445H148.446H148.447H148.448H148.449H148.449H148.45H148.451H148.452H148.453H148.453H148.454H148.455H148.456H148.457H148.457H148.458H148.459H148.46H148.461H148.461H148.462H148.463H148.464H148.465H148.465H148.466H148.467H148.468H148.469H148.469H148.47H148.471H148.472H148.473H148.473H148.474H148.475H148.476H148.477H148.477H148.478H148.479H148.48H148.481H148.481H148.482H148.483H148.484H148.485H148.485H148.486H148.487H148.488H148.489H148.49H148.49H148.491H148.492H148.493H148.494H148.494H148.495H148.496H148.497H148.498H148.498H148.499H148.5H148.501H148.502H148.502H148.503H148.504H148.505H148.506H148.506H148.507H148.508H148.509H148.51H148.51H148.511H148.512H148.513H148.514H148.514H148.515H148.516H148.517H148.518H148.518H148.519H148.52H148.521H148.522H148.522H148.523H148.524H148.525H148.526H148.526H148.527H148.528H148.529H148.53H148.531H148.531H148.532H148.533H148.534H148.535H148.535H148.536H148.537H148.538H148.539H148.539H148.54H148.541H148.542H148.543H148.543H148.544H148.545H148.546H148.547H148.547H148.548H148.549H148.55H148.551H148.551H148.552H148.553H148.554H148.555H148.555H148.556H148.557H148.558H148.559H148.559H148.56H148.561H148.562H148.563H148.563H148.564H148.565H148.566H148.567H148.567H148.568H148.569H148.57H148.571H148.572H148.572H148.573H148.574H148.575H148.576H148.576H148.577H148.578H148.579H148.58H148.58H148.581H148.582H148.583H148.584H148.584H148.585H148.586H148.587H148.588H148.588H148.589H148.59H148.591H148.592H148.592H148.593H148.594H148.595H148.596H148.596H148.597H148.598H148.599H148.6H148.6H148.601H148.602H148.603H148.604H148.604H148.605H148.606H148.607H148.608H148.608H148.609H148.61H148.611H148.612H148.612H148.613H148.614H148.615H148.616H148.617H148.617H148.618H148.619H148.62H148.621H148.621H148.622H148.623H148.624H148.625H148.625H148.626H148.627H148.628H148.629H148.629H148.63H148.631H148.632H148.633H148.633H148.634H148.635H148.636H148.637H148.637H148.638H148.639H148.64H148.641H148.641H148.642H148.643H148.644H148.645H148.645H148.646H148.647H148.648H148.649H148.649H148.65H148.651H148.652H148.653H148.653H148.654H148.655H148.656H148.657H148.658H148.658H148.659H148.66H148.661H148.662H148.662H148.663H148.664H148.665H148.666H148.666H148.667H148.668H148.669H148.67H148.67H148.671H148.672H148.673H148.674H148.674H148.675H148.676H148.677H148.678H148.678H148.679H148.68H148.681H148.682H148.682H148.683H148.684H148.685H148.686H148.686H148.687H148.688H148.689H148.69H148.69H148.691H148.692H148.693H148.694H148.694H148.695H148.696H148.697H148.698H148.699H148.699H148.7H148.701H148.702H148.703H148.703H148.704H148.705H148.706H148.707H148.707H148.708H148.709H148.71H148.711H148.711H148.712H148.713H148.714H148.715H148.715H148.716H148.717H148.718H148.719H148.719H148.72H148.721H148.722H148.723H148.723H148.724H148.725H148.726H148.727H148.727H148.728H148.729H148.73H148.731H148.731H148.732H148.733H148.734H148.735H148.735H148.736H148.737H148.738H148.739H148.74H148.74H148.741H148.742H148.743H148.744H148.744H148.745H148.746H148.747H148.748H148.748H148.749H148.75H148.751H148.752H148.752H148.753H148.754H148.755H148.756H148.756H148.757H148.758H148.759H148.76H148.76H148.761H148.762H148.763H148.764H148.764H148.765H148.766H148.767H148.768H148.768H148.769H148.77H148.771H148.772H148.772H148.773H148.774H148.775H148.776H148.776H148.777H148.778H148.779H148.78H148.781H148.781H148.782H148.783H148.784H148.785H148.785H148.786H148.787H148.788H148.789H148.789H148.79H148.791H148.792H148.793H148.793H148.794H148.795H148.796H148.797H148.797H148.798H148.799H148.8H148.801H148.801H148.802H148.803H148.804H148.805H148.805H148.806H148.807H148.808H148.809H148.809H148.81H148.811H148.812H148.813H148.813H148.814H148.815H148.816H148.817H148.817H148.818H148.819H148.82H148.821H148.821H148.822H148.823H148.824H148.825H148.826H148.826H148.827H148.828H148.829H148.83H148.83H148.831H148.832H148.833H148.834H148.834H148.835H148.836H148.837H148.838H148.838H148.839H148.84H148.841H148.842H148.842H148.843H148.844H148.845H148.846H148.846H148.847H148.848H148.849H148.85C179.356 189.22 192.201 182.829 197.609 177.345L197.609 177.345C200.338 174.577 201.179 172.049 201.431 170.704C204.239 170.491 207.182 169.342 209.669 167.561C211.56 166.206 213.207 164.47 214.33 162.474Z" fill="#F9F9F9" stroke="white"/>
<path d="M104.878 110.01H92.9193C92.1294 110.01 91.4878 109.368 91.4878 108.578C91.4878 107.79 92.1382 107.147 92.9193 107.147H104.878C105.666 107.147 106.309 107.797 106.309 108.578C106.309 109.366 105.659 110.01 104.878 110.01Z" fill="#F9F9F9" stroke="white"/>
<path d="M198.435 109.651H186.476C185.688 109.651 185.045 109 185.045 108.219C185.045 107.431 185.695 106.788 186.476 106.788H198.435C199.223 106.788 199.866 107.438 199.866 108.219C199.866 109.007 199.216 109.651 198.435 109.651Z" fill="#F9F9F9" stroke="white"/>
<path d="M92.9722 95.7053H197.992C199.027 95.7053 199.867 96.5447 199.867 97.5801V100.303C199.867 101.339 199.027 102.178 197.992 102.178H92.9722C91.9368 102.178 91.0974 101.339 91.0974 100.303V97.5801C91.0974 96.5447 91.9368 95.7053 92.9722 95.7053Z" fill="#1D1D1B" stroke="white"/>
<path d="M214.33 160.363C213.719 166.492 208.507 171.322 202.224 171.322H201.718L201.724 171.826V171.826V171.826L201.724 171.827L201.724 171.83C201.724 171.835 201.724 171.844 201.723 171.858C201.723 171.884 201.72 171.928 201.715 171.987C201.705 172.105 201.684 172.285 201.638 172.518C201.547 172.985 201.359 173.665 200.971 174.49C200.195 176.136 198.61 178.376 195.361 180.639C188.851 185.175 175.652 189.804 148.943 189.856C122.875 189.909 108.053 185.285 99.7663 180.692C95.6242 178.396 93.1117 176.106 91.6406 174.406C90.9047 173.555 90.4282 172.851 90.138 172.366C89.9929 172.124 89.8944 171.936 89.8333 171.811C89.8027 171.749 89.7815 171.703 89.7685 171.673C89.762 171.659 89.7576 171.648 89.7551 171.642L89.7528 171.637L89.7527 171.636L89.7526 171.636L89.6278 171.322H89.2885C83.0035 171.322 77.7902 166.489 77.1821 160.357C78.3193 162.377 79.9914 164.131 81.9115 165.495C84.4593 167.303 87.4801 168.45 90.3448 168.605C92.1394 172.058 102.648 187.162 148.437 187.162H148.438H148.439H148.44H148.44H148.441H148.442H148.443H148.444H148.444H148.445H148.446H148.447H148.448H148.449H148.449H148.45H148.451H148.452H148.453H148.453H148.454H148.455H148.456H148.457H148.457H148.458H148.459H148.46H148.461H148.461H148.462H148.463H148.464H148.465H148.465H148.466H148.467H148.468H148.469H148.469H148.47H148.471H148.472H148.473H148.473H148.474H148.475H148.476H148.477H148.477H148.478H148.479H148.48H148.481H148.481H148.482H148.483H148.484H148.485H148.485H148.486H148.487H148.488H148.489H148.49H148.49H148.491H148.492H148.493H148.494H148.494H148.495H148.496H148.497H148.498H148.498H148.499H148.5H148.501H148.502H148.502H148.503H148.504H148.505H148.506H148.506H148.507H148.508H148.509H148.51H148.51H148.511H148.512H148.513H148.514H148.514H148.515H148.516H148.517H148.518H148.518H148.519H148.52H148.521H148.522H148.522H148.523H148.524H148.525H148.526H148.526H148.527H148.528H148.529H148.53H148.531H148.531H148.532H148.533H148.534H148.535H148.535H148.536H148.537H148.538H148.539H148.539H148.54H148.541H148.542H148.543H148.543H148.544H148.545H148.546H148.547H148.547H148.548H148.549H148.55H148.551H148.551H148.552H148.553H148.554H148.555H148.555H148.556H148.557H148.558H148.559H148.559H148.56H148.561H148.562H148.563H148.563H148.564H148.565H148.566H148.567H148.567H148.568H148.569H148.57H148.571H148.572H148.572H148.573H148.574H148.575H148.576H148.576H148.577H148.578H148.579H148.58H148.58H148.581H148.582H148.583H148.584H148.584H148.585H148.586H148.587H148.588H148.588H148.589H148.59H148.591H148.592H148.592H148.593H148.594H148.595H148.596H148.596H148.597H148.598H148.599H148.6H148.6H148.601H148.602H148.603H148.604H148.604H148.605H148.606H148.607H148.608H148.608H148.609H148.61H148.611H148.612H148.612H148.613H148.614H148.615H148.616H148.617H148.617H148.618H148.619H148.62H148.621H148.621H148.622H148.623H148.624H148.625H148.625H148.626H148.627H148.628H148.629H148.629H148.63H148.631H148.632H148.633H148.633H148.634H148.635H148.636H148.637H148.637H148.638H148.639H148.64H148.641H148.641H148.642H148.643H148.644H148.645H148.645H148.646H148.647H148.648H148.649H148.649H148.65H148.651H148.652H148.653H148.653H148.654H148.655H148.656H148.657H148.658H148.658H148.659H148.66H148.661H148.662H148.662H148.663H148.664H148.665H148.666H148.666H148.667H148.668H148.669H148.67H148.67H148.671H148.672H148.673H148.674H148.674H148.675H148.676H148.677H148.678H148.678H148.679H148.68H148.681H148.682H148.682H148.683H148.684H148.685H148.686H148.686H148.687H148.688H148.689H148.69H148.69H148.691H148.692H148.693H148.694H148.694H148.695H148.696H148.697H148.698H148.699H148.699H148.7H148.701H148.702H148.703H148.703H148.704H148.705H148.706H148.707H148.707H148.708H148.709H148.71H148.711H148.711H148.712H148.713H148.714H148.715H148.715H148.716H148.717H148.718H148.719H148.719H148.72H148.721H148.722H148.723H148.723H148.724H148.725H148.726H148.727H148.727H148.728H148.729H148.73H148.731H148.731H148.732H148.733H148.734H148.735H148.735H148.736H148.737H148.738H148.739H148.74H148.74H148.741H148.742H148.743H148.744H148.744H148.745H148.746H148.747H148.748H148.748H148.749H148.75H148.751H148.752H148.752H148.753H148.754H148.755H148.756H148.756H148.757H148.758H148.759H148.76H148.76H148.761H148.762H148.763H148.764H148.764H148.765H148.766H148.767H148.768H148.768H148.769H148.77H148.771H148.772H148.772H148.773H148.774H148.775H148.776H148.776H148.777H148.778H148.779H148.78H148.781H148.781H148.782H148.783H148.784H148.785H148.785H148.786H148.787H148.788H148.789H148.789H148.79H148.791H148.792H148.793H148.793H148.794H148.795H148.796H148.797H148.797H148.798H148.799H148.8H148.801H148.801H148.802H148.803H148.804H148.805H148.805H148.806H148.807H148.808H148.809H148.809H148.81H148.811H148.812H148.813H148.813H148.814H148.815H148.816H148.817H148.817H148.818H148.819H148.82H148.821H148.821H148.822H148.823H148.824H148.825H148.826H148.826H148.827H148.828H148.829H148.83H148.83H148.831H148.832H148.833H148.834H148.834H148.835H148.836H148.837H148.838H148.838H148.839H148.84H148.841H148.842H148.842H148.843H148.844H148.845H148.846H148.846H148.847H148.848H148.849H148.85C179.356 187.109 192.201 180.718 197.609 175.234L197.609 175.234C200.338 172.466 201.179 169.938 201.431 168.593C204.239 168.38 207.182 167.231 209.669 165.45C211.56 164.095 213.207 162.359 214.33 160.363Z" fill="#1D1D1B" stroke="white"/>
<path d="M91.8235 166.913L91.6998 166.594H91.3572H90.9983C87.9939 166.594 84.6399 165.26 82.0355 163.075C79.4323 160.891 77.64 157.911 77.64 154.66V154.16H77.14H77.1228V122.014C77.1228 115.324 82.5985 109.849 89.2885 109.849H202.224C208.914 109.849 214.39 115.324 214.39 122.014V154.16H214.373H213.873V154.66C213.873 157.917 212.08 160.896 209.477 163.078C206.873 165.262 203.519 166.594 200.514 166.594H199.997H199.497V167.094V167.611C199.497 167.609 199.497 167.609 199.497 167.611C199.494 167.707 199.358 171.892 193.417 176.101C187.71 180.143 175.322 185.075 148.848 185.128H148.448C123.887 185.128 109.755 180.631 101.774 176.156C93.9315 171.758 92.0054 167.369 91.9476 167.234L91.8235 166.913Z" fill="#1D1D1B" stroke="white"/>
<path d="M146.97 183.186C145.104 183.186 143.575 181.657 143.575 179.791V110.932C143.575 110.247 144.133 109.69 144.817 109.69H149.356C149.911 109.69 150.365 110.15 150.365 110.7V179.791C150.365 181.657 148.837 183.186 146.97 183.186Z" fill="#F9F9F9" stroke="white"/>
<path d="M91.1118 167.912L90.6643 168.014L90.6754 167.639C87.95 167.558 84.9934 166.477 82.4904 164.7C82.4283 164.656 82.3664 164.612 82.3048 164.567C84.9101 166.457 88.0738 167.604 90.9983 167.604H91.0146L91.0176 167.612L91.0179 167.612C91.1908 168.057 99.0802 186.138 148.448 186.138L148.849 186.138L148.85 186.138C175.413 186.085 188.05 181.138 193.995 176.927L193.706 176.519L193.995 176.927C200.375 172.408 200.497 167.8 200.497 167.621V167.594H200.514C203.79 167.594 207.365 166.152 210.12 163.84C212.069 162.205 213.638 160.108 214.39 157.736V157.77C213.51 160.491 211.541 162.893 209.09 164.652C206.617 166.426 203.691 167.517 200.979 167.628L200.556 167.646L200.504 168.066C200.379 169.065 199.768 171.63 196.897 174.542C191.761 179.74 179.253 186.109 148.849 186.173H148.848L148.848 186.173L148.847 186.173H148.846H148.846H148.845H148.844H148.843H148.842H148.842H148.841H148.84H148.839H148.838H148.838H148.837H148.836H148.835H148.834H148.834H148.833H148.832H148.831H148.83H148.83H148.829H148.828H148.827H148.826H148.826H148.825H148.824H148.823H148.822H148.821H148.821H148.82H148.819H148.818H148.817H148.817H148.816H148.815H148.814H148.813H148.813H148.812H148.811H148.81H148.809H148.809H148.808H148.807H148.806H148.805H148.805H148.804H148.803H148.802H148.801H148.801H148.8H148.799H148.798H148.797H148.797H148.796H148.795H148.794H148.793H148.793H148.792H148.791H148.79H148.789H148.789H148.788H148.787H148.786H148.785H148.785H148.784H148.783H148.782H148.781H148.781H148.78H148.779H148.778H148.777H148.776H148.776H148.775H148.774H148.773H148.772H148.772H148.771H148.77H148.769H148.768H148.768H148.767H148.766H148.765H148.764H148.764H148.763H148.762H148.761H148.76H148.76H148.759H148.758H148.757H148.756H148.756H148.755H148.754H148.753H148.752H148.752H148.751H148.75H148.749H148.748H148.748H148.747H148.746H148.745H148.744H148.744H148.743H148.742H148.741H148.74H148.74H148.739H148.738H148.737H148.736H148.735H148.735H148.734H148.733H148.732H148.731H148.731H148.73H148.729H148.728H148.727H148.727H148.726H148.725H148.724H148.723H148.723H148.722H148.721H148.72H148.719H148.719H148.718H148.717H148.716H148.715H148.715H148.714H148.713H148.712H148.711H148.711H148.71H148.709H148.708H148.707H148.707H148.706H148.705H148.704H148.703H148.703H148.702H148.701H148.7H148.699H148.699H148.698H148.697H148.696H148.695H148.694H148.694H148.693H148.692H148.691H148.69H148.69H148.689H148.688H148.687H148.686H148.686H148.685H148.684H148.683H148.682H148.682H148.681H148.68H148.679H148.678H148.678H148.677H148.676H148.675H148.674H148.674H148.673H148.672H148.671H148.67H148.67H148.669H148.668H148.667H148.666H148.666H148.665H148.664H148.663H148.662H148.662H148.661H148.66H148.659H148.658H148.658H148.657H148.656H148.655H148.654H148.653H148.653H148.652H148.651H148.65H148.649H148.649H148.648H148.647H148.646H148.645H148.645H148.644H148.643H148.642H148.641H148.641H148.64H148.639H148.638H148.637H148.637H148.636H148.635H148.634H148.633H148.633H148.632H148.631H148.63H148.629H148.629H148.628H148.627H148.626H148.625H148.625H148.624H148.623H148.622H148.621H148.621H148.62H148.619H148.618H148.617H148.617H148.616H148.615H148.614H148.613H148.612H148.612H148.611H148.61H148.609H148.608H148.608H148.607H148.606H148.605H148.604H148.604H148.603H148.602H148.601H148.6H148.6H148.599H148.598H148.597H148.596H148.596H148.595H148.594H148.593H148.592H148.592H148.591H148.59H148.589H148.588H148.588H148.587H148.586H148.585H148.584H148.584H148.583H148.582H148.581H148.58H148.58H148.579H148.578H148.577H148.576H148.576H148.575H148.574H148.573H148.572H148.572H148.571H148.57H148.569H148.568H148.567H148.567H148.566H148.565H148.564H148.563H148.563H148.562H148.561H148.56H148.559H148.559H148.558H148.557H148.556H148.555H148.555H148.554H148.553H148.552H148.551H148.551H148.55H148.549H148.548H148.547H148.547H148.546H148.545H148.544H148.543H148.543H148.542H148.541H148.54H148.539H148.539H148.538H148.537H148.536H148.535H148.535H148.534H148.533H148.532H148.531H148.531H148.53H148.529H148.528H148.527H148.526H148.526H148.525H148.524H148.523H148.522H148.522H148.521H148.52H148.519H148.518H148.518H148.517H148.516H148.515H148.514H148.514H148.513H148.512H148.511H148.51H148.51H148.509H148.508H148.507H148.506H148.506H148.505H148.504H148.503H148.502H148.502H148.501H148.5H148.499H148.498H148.498H148.497H148.496H148.495H148.494H148.494H148.493H148.492H148.491H148.49H148.49H148.489H148.488H148.487H148.486H148.485H148.485H148.484H148.483H148.482H148.481H148.481H148.48H148.479H148.478H148.477H148.477H148.476H148.475H148.474H148.473H148.473H148.472H148.471H148.47H148.469H148.469H148.468H148.467H148.466H148.465H148.465H148.464H148.463H148.462H148.461H148.461H148.46H148.459H148.458H148.457H148.457H148.456H148.455H148.454H148.453H148.453H148.452H148.451H148.45H148.449H148.449H148.448H148.447H148.446H148.445H148.444H148.444H148.443H148.442H148.441H148.44H148.44H148.439H148.438H148.437C101.544 186.173 92.2356 170.266 91.1118 167.912ZM77.1228 157.78V157.75C77.3512 158.471 77.6548 159.166 78.0216 159.83C77.6556 159.172 77.3524 158.487 77.1228 157.78Z" fill="#F9F9F9" stroke="white"/>
<path d="M145.503 182.215C143.637 182.215 142.108 180.686 142.108 178.82V109.961C142.108 109.276 142.666 108.719 143.35 108.719H147.888C148.444 108.719 148.898 109.179 148.898 109.729V178.82C148.898 180.686 147.37 182.215 145.503 182.215Z" fill="#1D1D1B" stroke="white"/>
<path d="M145.503 182.225C144.041 182.225 142.879 181.513 142.377 180.588C143.192 181.268 144.317 181.674 145.503 181.674C146.694 181.674 147.822 181.262 148.637 180.577C148.14 181.51 146.974 182.225 145.503 182.225Z" fill="#F9F9F9" stroke="white"/>
<path opacity="0.47" d="M151.825 153.453H139.687C138.993 153.453 138.425 152.885 138.425 152.19C138.425 151.495 138.993 150.928 139.687 150.928H151.825C152.52 150.928 153.088 151.495 153.088 152.19C153.088 152.885 152.52 153.453 151.825 153.453Z" fill="#1D1D1B" stroke="white"/>
<path d="M151.825 152.397H139.687C138.993 152.397 138.425 151.83 138.425 151.135C138.425 150.44 138.993 149.872 139.687 149.872H151.825C152.52 149.872 153.088 150.44 153.088 151.135C153.088 151.83 152.52 152.397 151.825 152.397Z" fill="#F9F9F9" stroke="white"/>
</svg>
