<svg width="300" height="300" viewBox="0 0 300 300" fill="none" xmlns="http://www.w3.org/2000/svg">

<path d="M214.848 191.37L214.774 191.38L214.828 191.819H214.882C214.914 192.035 214.951 192.335 214.979 192.704C215.039 193.522 215.051 194.676 214.855 196.014C214.466 198.685 213.252 202.081 209.944 205.002C209.834 205.098 209.622 205.222 209.27 205.359C208.927 205.493 208.483 205.627 207.941 205.759C206.856 206.023 205.412 206.272 203.652 206.502C200.133 206.963 195.396 207.348 189.838 207.657C178.726 208.274 164.37 208.583 150.009 208.583C135.649 208.583 121.293 208.274 110.181 207.657C104.623 207.348 99.8856 206.963 96.3672 206.502C94.6069 206.272 93.1627 206.023 92.078 205.759C91.5354 205.627 91.0922 205.493 90.7486 205.359C90.397 205.222 90.1846 205.098 90.0748 205.001L90.0747 205.001C86.7668 202.086 85.5533 198.69 85.1634 196.018C84.9682 194.68 84.98 193.524 85.0402 192.705C85.0703 192.296 85.1125 191.972 85.1466 191.753C85.1636 191.643 85.1787 191.559 85.1892 191.504C85.1944 191.477 85.1986 191.457 85.2012 191.444L85.2041 191.43L85.2045 191.428L85.2046 191.428L85.2047 191.428L85.21 191.404L85.213 191.38L84.7167 191.319C85.213 191.38 85.213 191.379 85.2131 191.379L85.2134 191.376L85.2148 191.364L85.2204 191.319L85.2424 191.14L85.3285 190.441C85.4039 189.828 85.5149 188.929 85.6567 187.783C85.9404 185.492 86.3477 182.215 86.8421 178.273C87.8309 170.389 89.168 159.844 90.5615 149.199C91.955 138.553 93.4046 127.809 94.6183 119.526C95.2253 115.385 95.7728 111.862 96.2244 109.276C96.4503 107.983 96.6514 106.929 96.8232 106.151C96.9092 105.762 96.9867 105.447 97.055 105.209C97.1271 104.957 97.1786 104.829 97.2036 104.784C98.083 103.218 98.7369 102.88 99.0424 102.822C99.1625 102.799 99.2532 102.814 99.3168 102.835C99.3233 102.876 99.3309 102.923 99.3395 102.974C99.38 103.215 99.4445 103.566 99.541 104.011C99.7342 104.902 100.056 106.17 100.572 107.692C101.603 110.736 103.412 114.801 106.526 118.893C112.768 127.095 124.211 135.345 144.962 135.748L144.962 135.748H144.971L155.016 135.748L155.025 135.748C175.771 135.345 187.213 127.095 193.457 118.893C196.571 114.801 198.382 110.736 199.414 107.692C199.93 106.17 200.252 104.902 200.445 104.012C200.542 103.566 200.607 103.215 200.647 102.974C200.656 102.923 200.663 102.876 200.67 102.835C200.734 102.814 200.824 102.799 200.945 102.822C201.25 102.88 201.904 103.218 202.783 104.784C202.808 104.829 202.86 104.957 202.932 105.209C203 105.447 203.078 105.762 203.164 106.151C203.335 106.929 203.537 107.983 203.762 109.276C204.214 111.862 204.762 115.385 205.369 119.526C206.582 127.809 208.032 138.553 209.425 149.199C210.819 159.844 212.156 170.389 213.145 178.273C213.639 182.215 214.046 185.492 214.33 187.783C214.472 188.929 214.583 189.828 214.658 190.441L214.744 191.14L214.766 191.319L214.772 191.364L214.773 191.376L214.774 191.379C214.774 191.379 214.774 191.379 214.848 191.37Z" fill="#1D1D1B" stroke="white"/>
<path d="M96.5656 104.089H97.6518C97.6383 104.219 97.6225 104.37 97.6046 104.542C97.5357 105.206 97.4357 106.18 97.3114 107.423C97.0628 109.908 96.7167 113.468 96.327 117.768C95.5475 126.366 94.593 137.923 93.8935 149.754C93.1941 161.583 92.7488 173.696 92.9895 183.404C93.1098 188.256 93.4017 192.521 93.9226 195.855C94.183 197.522 94.5024 198.968 94.8913 200.144C95.2771 201.311 95.7451 202.255 96.3274 202.878L96.3408 202.893L96.3552 202.906L96.6928 202.537C96.3552 202.906 96.3554 202.906 96.3556 202.906L96.3561 202.907L96.3577 202.908L96.3628 202.913L96.3809 202.929C96.3856 202.933 96.3909 202.938 96.3969 202.943C96.4107 202.955 96.4279 202.971 96.4485 202.988C96.5073 203.039 96.5936 203.113 96.7064 203.206C96.9321 203.391 97.2642 203.652 97.6957 203.962C98.5585 204.582 99.8205 205.399 101.425 206.192C102.39 206.668 103.479 207.136 104.681 207.548C104.242 207.518 103.798 207.485 103.35 207.449C100.375 207.212 97.2795 206.85 94.6666 206.3C93.3601 206.025 92.185 205.706 91.2109 205.336C90.2297 204.963 89.488 204.553 89.0178 204.114C86.9596 202.193 85.8938 199.679 85.3858 197.291C84.8777 194.902 84.9355 192.675 85.0954 191.38C85.2606 190.048 88.1421 168.119 90.983 146.518C92.4033 135.719 93.8132 125.003 94.8681 116.987L96.1411 107.315L96.497 104.61L96.5656 104.089Z" fill="#F2F2F2" stroke="white"/>
<path d="M195.188 207.548C196.39 207.136 197.48 206.668 198.444 206.192C200.049 205.399 201.311 204.582 202.174 203.962C202.605 203.652 202.937 203.391 203.163 203.206C203.276 203.113 203.362 203.039 203.421 202.988C203.45 202.963 203.473 202.943 203.489 202.929L203.507 202.913L203.512 202.908L203.513 202.907L203.514 202.906C203.514 202.906 203.514 202.906 203.177 202.537L203.514 202.906L203.529 202.893L203.542 202.878C204.124 202.255 204.592 201.311 204.978 200.144C205.367 198.968 205.686 197.522 205.947 195.855C206.468 192.521 206.76 188.256 206.88 183.404C207.121 173.696 206.675 161.583 205.976 149.754C205.276 137.923 204.322 126.366 203.542 117.768C203.153 113.468 202.807 109.908 202.558 107.423C202.434 106.18 202.334 105.206 202.265 104.542C202.247 104.37 202.231 104.219 202.218 104.089H203.304L203.372 104.61L203.728 107.315L205.001 116.987C206.056 125.003 207.466 135.719 208.886 146.518C211.727 168.119 214.609 190.048 214.774 191.38C214.934 192.675 214.992 194.902 214.484 197.291C213.976 199.679 212.91 202.193 210.852 204.114C210.381 204.553 209.64 204.963 208.659 205.336C207.684 205.706 206.509 206.025 205.203 206.3C202.59 206.85 199.494 207.212 196.519 207.449C196.072 207.485 195.627 207.518 195.188 207.548Z" fill="#F2F2F2" stroke="white"/>
<path d="M97.5683 102.726C97.7975 68.9014 121.253 41.6144 149.903 41.6144C178.553 41.6144 202.008 68.9014 202.237 102.726H200.206C199.979 70.1737 177.568 43.6244 149.892 43.6244C122.217 43.6244 99.8059 70.1737 99.5785 102.726H97.5683Z" fill="#F9F9F9" stroke="white"/>
<path d="M204.107 103.579C204.107 104.925 203.018 106.014 201.672 106.014C200.325 106.014 199.236 104.925 199.236 103.579C199.236 102.232 200.325 101.143 201.672 101.143C203.018 101.143 204.107 102.232 204.107 103.579Z" fill="#F9F9F9" stroke="white"/>
<path d="M100.996 103.579C100.996 104.925 99.9071 106.014 98.5608 106.014C97.2145 106.014 96.1255 104.925 96.1255 103.579C96.1255 102.232 97.2145 101.143 98.5608 101.143C99.9071 101.143 100.996 102.232 100.996 103.579Z" fill="#F9F9F9" stroke="white"/>
<path d="M92.7782 206.014L90.8692 205.385L116.161 128.64L118.07 129.269L92.7782 206.014Z" fill="#F9F9F9" stroke="white"/>
<path d="M205.719 205.899L180.671 129.894L182.58 129.265L207.629 205.27L205.719 205.899Z" fill="#F9F9F9" stroke="white"/>
<g opacity="0.56">
<path d="M151.995 173.986C146.301 173.986 141.853 170.224 141.853 165.787C141.853 161.349 146.301 157.587 151.995 157.587C157.688 157.587 162.137 161.349 162.137 165.787C162.137 170.224 157.688 173.986 151.995 173.986ZM151.995 159.608C149.795 159.608 147.78 160.275 146.303 161.373C144.827 162.472 143.863 164.028 143.863 165.787C143.863 167.545 144.827 169.101 146.303 170.2C147.78 171.299 149.795 171.965 151.995 171.965C154.195 171.965 156.21 171.299 157.686 170.2C159.162 169.101 160.127 167.545 160.127 165.787C160.127 164.028 159.162 162.472 157.686 161.373C156.21 160.275 154.195 159.608 151.995 159.608Z" fill="#F2F2F2" stroke="white"/>
<path d="M155.028 174.987C155.028 175.41 154.942 175.665 154.834 175.826C154.729 175.983 154.569 176.101 154.323 176.188C154.068 176.277 153.741 176.325 153.334 176.348C152.987 176.367 152.609 176.367 152.195 176.366C152.126 176.366 152.056 176.366 151.984 176.366C151.913 176.366 151.842 176.366 151.773 176.366C151.359 176.367 150.982 176.367 150.634 176.348C150.228 176.325 149.901 176.277 149.646 176.188C149.399 176.101 149.24 175.983 149.135 175.826C149.026 175.665 148.94 175.41 148.94 174.987C148.94 173.31 150.307 171.944 151.984 171.944C153.662 171.944 155.028 173.301 155.028 174.987Z" fill="#F2F2F2" stroke="white"/>
<path d="M151.984 155.452C152.056 155.452 152.126 155.452 152.195 155.452C152.609 155.452 152.987 155.451 153.334 155.47C153.741 155.493 154.068 155.541 154.323 155.631C154.569 155.718 154.729 155.835 154.834 155.992C154.942 156.153 155.028 156.408 155.028 156.831C155.028 158.518 153.662 159.875 151.984 159.875C150.307 159.875 148.94 158.508 148.94 156.831C148.94 156.408 149.026 156.153 149.135 155.992C149.24 155.835 149.399 155.718 149.646 155.631C149.901 155.541 150.228 155.493 150.634 155.47C150.982 155.451 151.359 155.452 151.773 155.452C151.842 155.452 151.913 155.452 151.984 155.452Z" fill="#F2F2F2" stroke="white"/>
</g>
<path d="M150.031 173.922C144.337 173.922 139.889 170.16 139.889 165.722C139.889 161.285 144.337 157.523 150.031 157.523C155.724 157.523 160.173 161.285 160.173 165.722C160.173 170.16 155.724 173.922 150.031 173.922ZM150.031 159.544C147.83 159.544 145.815 160.211 144.339 161.309C142.863 162.408 141.899 163.964 141.899 165.722C141.899 167.481 142.863 169.037 144.339 170.136C145.815 171.234 147.83 171.901 150.031 171.901C152.231 171.901 154.246 171.234 155.722 170.136C157.198 169.037 158.163 167.481 158.163 165.722C158.163 163.964 157.198 162.408 155.722 161.309C154.246 160.211 152.231 159.544 150.031 159.544Z" fill="#1D1D1B" stroke="white"/>
<path d="M153.075 174.924C153.075 175.347 152.989 175.602 152.881 175.763C152.777 175.92 152.619 176.037 152.373 176.124C152.119 176.213 151.793 176.262 151.385 176.284C151.037 176.303 150.659 176.303 150.243 176.302C150.173 176.302 150.103 176.302 150.031 176.302C149.959 176.302 149.888 176.302 149.818 176.302C149.403 176.303 149.024 176.303 148.676 176.284C148.269 176.262 147.943 176.213 147.688 176.124C147.443 176.037 147.285 175.92 147.18 175.763C147.073 175.602 146.987 175.347 146.987 174.924C146.987 173.245 148.344 171.88 150.031 171.88C151.718 171.88 153.075 173.245 153.075 174.924Z" fill="#1D1D1B" stroke="white"/>
<path d="M157.077 208.591H144.444L148.181 176.427H151.984L157.077 208.591Z" fill="#F9F9F9" stroke="white"/>
<path d="M150.031 155.388C150.103 155.388 150.173 155.388 150.243 155.388C150.659 155.388 151.037 155.387 151.385 155.407C151.793 155.429 152.119 155.477 152.373 155.567C152.619 155.653 152.777 155.771 152.881 155.927C152.989 156.088 153.075 156.344 153.075 156.767C153.075 158.445 151.718 159.811 150.031 159.811C148.344 159.811 146.987 158.445 146.987 156.767C146.987 156.344 147.073 156.088 147.18 155.927C147.285 155.771 147.443 155.653 147.688 155.567C147.943 155.477 148.269 155.429 148.676 155.407C149.024 155.387 149.403 155.388 149.818 155.388C149.888 155.388 149.959 155.388 150.031 155.388Z" fill="#1D1D1B" stroke="white"/>
<path d="M151.89 155.509H148.009L143.619 135.731L156.695 135.595L151.89 155.509Z" fill="#F9F9F9" stroke="white"/>
</svg>
