<svg width="33" height="32" viewBox="0 0 33 32" fill="none" xmlns="http://www.w3.org/2000/svg">
<path fill-rule="evenodd" clip-rule="evenodd" d="M16.0755 27.5L16.7484 26.9084C22.407 21.9334 25.2831 17.5894 25.2831 13.771C25.2831 8.36362 21.0916 4.5 16.0755 4.5C11.0595 4.5 6.86792 8.36362 6.86792 13.771C6.86792 17.5894 9.74408 21.9334 15.4026 26.9084L16.0755 27.5ZM16.0755 24.7555C11.2739 20.3982 8.91405 16.706 8.91405 13.7709C8.91405 9.54396 12.1512 6.56012 16.0755 6.56012C19.9999 6.56012 23.237 9.54396 23.237 13.7709C23.237 16.706 20.8772 20.3982 16.0755 24.7555ZM16.0755 8.62049C18.9006 8.62049 21.1909 10.9265 21.1909 13.7711C21.1909 16.6157 18.9006 18.9217 16.0755 18.9217C13.2504 18.9217 10.9602 16.6157 10.9602 13.7711C10.9602 10.9265 13.2504 8.62049 16.0755 8.62049ZM13.0063 13.771C13.0063 12.0642 14.3805 10.6806 16.0755 10.6806C17.7706 10.6806 19.1447 12.0642 19.1447 13.771C19.1447 15.4777 17.7706 16.8613 16.0755 16.8613C14.3805 16.8613 13.0063 15.4777 13.0063 13.771Z" fill="#1D1D1B"/>
</svg>
