<svg width="24" height="24" viewBox="-4 -3.5 24 24" fill="none" xmlns="http://www.w3.org/2000/svg">
<path d="M7.99992 15.6667C4.04659 15.6667 0.833252 12.4534 0.833252 8.50004C0.833252 4.54671 4.04659 1.33337 7.99992 1.33337C11.9533 1.33337 15.1666 4.54671 15.1666 8.50004C15.1666 12.4534 11.9533 15.6667 7.99992 15.6667ZM7.99992 2.33337C4.59992 2.33337 1.83325 5.10004 1.83325 8.50004C1.83325 11.9 4.59992 14.6667 7.99992 14.6667C11.3999 14.6667 14.1666 11.9 14.1666 8.50004C14.1666 5.10004 11.3999 2.33337 7.99992 2.33337Z" fill="#BDBFC2"/>
<path d="M5.99991 15H5.33325C5.05991 15 4.83325 14.7733 4.83325 14.5C4.83325 14.2267 5.04658 14.0067 5.31991 14C4.27325 10.4267 4.27325 6.57333 5.31991 3C5.04658 2.99333 4.83325 2.77333 4.83325 2.5C4.83325 2.22667 5.05991 2 5.33325 2H5.99991C6.15991 2 6.31325 2.08 6.40658 2.20667C6.49991 2.34 6.52658 2.50667 6.47325 2.66C5.21991 6.42667 5.21991 10.5733 6.47325 14.3467C6.52658 14.5 6.49991 14.6667 6.40658 14.8C6.31325 14.92 6.15991 15 5.99991 15Z" fill="#BDBFC2"/>
<path d="M9.99986 15C9.94652 15 9.89319 14.9934 9.83986 14.9734C9.57986 14.8867 9.43319 14.6 9.52652 14.34C10.7799 10.5734 10.7799 6.4267 9.52652 2.65337C9.43986 2.39337 9.57986 2.10671 9.83986 2.02004C10.1065 1.93337 10.3865 2.07337 10.4732 2.33337C11.7999 6.3067 11.7999 10.68 10.4732 14.6467C10.4065 14.8667 10.2065 15 9.99986 15Z" fill="#BDBFC2"/>
<path d="M8 11.9667C6.14 11.9667 4.28667 11.7067 2.5 11.18C2.49333 11.4467 2.27333 11.6667 2 11.6667C1.72667 11.6667 1.5 11.44 1.5 11.1667V10.5C1.5 10.34 1.58 10.1867 1.70667 10.0934C1.84 10 2.00667 9.97336 2.16 10.0267C5.92667 11.28 10.08 11.28 13.8467 10.0267C14 9.97336 14.1667 10 14.3 10.0934C14.4333 10.1867 14.5067 10.34 14.5067 10.5V11.1667C14.5067 11.44 14.28 11.6667 14.0067 11.6667C13.7333 11.6667 13.5133 11.4534 13.5067 11.18C11.7133 11.7067 9.86 11.9667 8 11.9667Z" fill="#BDBFC2"/>
<path d="M14 6.99995C13.9467 6.99995 13.8934 6.99328 13.84 6.97328C10.0734 5.71995 5.92002 5.71995 2.15335 6.97328C1.88669 7.05995 1.60669 6.91995 1.52002 6.65995C1.44002 6.39328 1.58002 6.11328 1.84002 6.02662C5.81335 4.69995 10.1867 4.69995 14.1534 6.02662C14.4134 6.11328 14.56 6.39995 14.4667 6.65995C14.4067 6.86662 14.2067 6.99995 14 6.99995Z" fill="#BDBFC2"/>
</svg>
