<svg width="24" height="24" viewBox="-4 -3.5 24 24" fill="none" xmlns="http://www.w3.org/2000/svg">
<path d="M3.72654 15.6334C2.16654 15.6334 0.846539 14.3134 0.846539 12.7534V8.64669C0.806539 6.70669 1.53322 4.87337 2.87988 3.49337C4.22655 2.12003 6.03988 1.3667 7.97988 1.3667C11.9532 1.3667 15.1799 4.60003 15.1799 8.57336V12.6801C15.1799 14.2667 13.8866 15.5601 12.2999 15.5601C10.7132 15.5601 9.41988 14.2667 9.41988 12.6801V10.8067C9.41988 9.85339 10.1932 9.08004 11.1465 9.08004C12.0999 9.08004 12.8732 9.85339 12.8732 10.8067V12.8267C12.8732 13.1 12.6465 13.3267 12.3732 13.3267C12.0999 13.3267 11.8732 13.1 11.8732 12.8267V10.8067C11.8732 10.3534 11.5065 10.08 11.1465 10.08C10.6932 10.08 10.4199 10.4467 10.4199 10.8067V12.6801C10.4199 13.7001 11.2799 14.5601 12.2999 14.5601C13.3199 14.5601 14.1799 13.7001 14.1799 12.6801V8.57336C14.1799 5.15336 11.3999 2.3667 7.97988 2.3667C6.30655 2.3667 4.75322 3.01336 3.59322 4.19336C2.43322 5.37336 1.81321 6.95338 1.84654 8.63338V12.7467C1.84654 13.7667 2.70654 14.6267 3.72654 14.6267C4.74654 14.6267 5.60655 13.7667 5.60655 12.7467V10.8734C5.60655 10.42 5.23988 10.1467 4.87988 10.1467C4.42655 10.1467 4.15322 10.5134 4.15322 10.8734V12.82C4.15322 13.0934 3.92655 13.32 3.65322 13.32C3.37989 13.32 3.15322 13.0934 3.15322 12.82V10.8734C3.15322 9.9067 3.91322 9.14669 4.87988 9.14669C5.83322 9.14669 6.60655 9.92004 6.60655 10.8734V12.7467C6.60655 14.34 5.31321 15.6334 3.72654 15.6334Z" fill="#BDBFC2"/>
<path d="M8.78648 8.40666C8.51981 8.40666 8.27982 8.26002 8.16648 8.02002L7.19981 6.09334L6.91982 6.61332C6.76649 6.89999 6.45983 7.08 6.13316 7.08H5.64648C5.37315 7.08 5.14648 6.85333 5.14648 6.58C5.14648 6.30666 5.37315 6.08 5.64648 6.08H6.07314L6.59981 5.10665C6.72648 4.87998 6.95981 4.75999 7.21981 4.73999C7.47981 4.73999 7.71315 4.89333 7.83315 5.12L8.78648 7.02665L9.01314 6.56665C9.16648 6.25998 9.46648 6.07332 9.81315 6.07332H10.3531C10.6265 6.07332 10.8531 6.29999 10.8531 6.57332C10.8531 6.84666 10.6265 7.07332 10.3531 7.07332H9.87982L9.40647 8.01335C9.28647 8.26001 9.05315 8.40666 8.78648 8.40666Z" fill="#BDBFC2"/>
</svg>
