<svg width="24" height="24" viewBox="-4 -3.5 24 24" fill="none" xmlns="http://www.w3.org/2000/svg">
<path d="M4.83992 13.0933C4.78658 13.0933 4.73325 13.0866 4.67992 13.08C4.27992 13.0266 3.93992 12.7733 3.77325 12.4133L2.93325 10.5666C1.59991 9.57994 0.833252 8.10663 0.833252 6.50663C0.833252 3.65997 3.29992 1.33997 6.33325 1.33997C8.47325 1.33997 10.4266 2.51329 11.3133 4.33329C11.6533 5.00663 11.8333 5.73997 11.8333 6.50663C11.8333 9.27997 9.49325 11.5533 6.57325 11.6666L5.73326 12.68C5.50659 12.94 5.17991 13.0933 4.83992 13.0933ZM6.33325 2.33329C3.85325 2.33329 1.83325 4.19996 1.83325 6.49996C1.83325 7.81329 2.48658 9.02662 3.61991 9.82662C3.69325 9.87995 3.75325 9.94661 3.78658 10.0266L4.67992 11.9933C4.71325 12.0666 4.77992 12.0866 4.81325 12.0866C4.84659 12.0933 4.91325 12.0866 4.95992 12.0333L5.94658 10.8466C6.03992 10.7333 6.17992 10.6666 6.33325 10.6666C8.81325 10.6666 10.8333 8.79996 10.8333 6.49996C10.8333 5.89329 10.6933 5.31327 10.4199 4.77327C9.69992 3.28661 8.09325 2.33329 6.33325 2.33329Z" fill="#BDBFC2"/>
<path d="M11.16 15.6667C10.8133 15.6667 10.4933 15.5134 10.2666 15.2467L9.42664 14.24C7.81331 14.1734 6.2933 13.4333 5.31997 12.2333C5.16664 12.0467 5.17331 11.78 5.32664 11.6L5.94664 10.8534C6.03997 10.7401 6.17997 10.6734 6.33331 10.6734C8.81331 10.6734 10.8333 8.8067 10.8333 6.5067C10.8333 5.90004 10.6933 5.32002 10.42 4.78002C10.3333 4.60669 10.3533 4.40003 10.4733 4.2467C10.5933 4.09336 10.7933 4.02668 10.98 4.06668C13.4466 4.63335 15.1666 6.69336 15.1666 9.08003C15.1666 10.68 14.4 12.1534 13.0666 13.14L12.2266 14.9867C12.0533 15.36 11.7133 15.6134 11.3066 15.66C11.26 15.6667 11.2066 15.6667 11.16 15.6667ZM6.3733 11.9C7.20664 12.7467 8.40664 13.24 9.66664 13.24C9.81331 13.24 9.95331 13.3067 10.0533 13.42L11.04 14.6067C11.0866 14.6667 11.1466 14.6734 11.1866 14.6667C11.2133 14.6667 11.2866 14.6467 11.3266 14.5667L12.22 12.6C12.26 12.52 12.3133 12.4467 12.3866 12.4C13.52 11.6 14.1733 10.3867 14.1733 9.07336C14.1733 7.47336 13.1933 6.05338 11.7 5.35338C11.7933 5.72672 11.84 6.1067 11.84 6.50003C11.84 9.27337 9.49997 11.5467 6.57997 11.66L6.3733 11.9Z" fill="#BDBFC2"/>
<path d="M8.00008 7H4.66675C4.39341 7 4.16675 6.77333 4.16675 6.5C4.16675 6.22667 4.39341 6 4.66675 6H8.00008C8.27341 6 8.50008 6.22667 8.50008 6.5C8.50008 6.77333 8.27341 7 8.00008 7Z" fill="#BDBFC2"/>
</svg>
