<svg width="24" height="24" viewBox="0 0 24 24" fill="none" xmlns="http://www.w3.org/2000/svg">
<path d="M18.8944 6.16642L6.16643 18.8943C5.87652 19.1843 5.39568 19.1843 5.10577 18.8943C4.81586 18.6044 4.81586 18.1236 5.10577 17.8337L17.8337 5.10576C18.1236 4.81585 18.6044 4.81585 18.8944 5.10576C19.1843 5.39568 19.1843 5.87651 18.8944 6.16642Z" fill="#1D1D1B"/>
<path d="M5.10565 6.16642L17.8336 18.8943C18.1235 19.1843 18.6043 19.1843 18.8942 18.8943C19.1841 18.6044 19.1841 18.1236 18.8942 17.8337L6.16631 5.10576C5.87639 4.81585 5.39556 4.81585 5.10565 5.10576C4.81573 5.39568 4.81573 5.87651 5.10565 6.16642Z" fill="#1D1D1B"/>
</svg>
