<svg width="24" height="24" viewBox="-3 -2.5 24 24" fill="none" xmlns="http://www.w3.org/2000/svg">
<path d="M8.99982 10.0216C7.09229 10.0216 5.53979 8.46912 5.53979 6.56159C5.53979 4.65406 7.09229 3.10156 8.99982 3.10156C10.9074 3.10156 12.4599 4.65406 12.4599 6.56159C12.4599 8.46912 10.9074 10.0216 8.99982 10.0216ZM8.99982 4.00418C7.59174 4.00418 6.44241 5.15351 6.44241 6.56159C6.44241 7.96967 7.59174 9.119 8.99982 9.119C10.4079 9.119 11.5572 7.96967 11.5572 6.56159C11.5572 5.15351 10.4079 4.00418 8.99982 4.00418Z" fill="#BDBFC2" stroke="#BDBFC2" stroke-width="0.3375"/>
<path d="M14.1689 16.039C13.9222 16.039 13.7176 15.8344 13.7176 15.5877C13.7176 13.5117 11.5995 11.8268 8.99993 11.8268C6.40039 11.8268 4.28225 13.5117 4.28225 15.5877C4.28225 15.8344 4.07766 16.039 3.83095 16.039C3.58423 16.039 3.37964 15.8344 3.37964 15.5877C3.37964 13.0183 5.90094 10.9242 8.99993 10.9242C12.0989 10.9242 14.6202 13.0183 14.6202 15.5877C14.6202 15.8344 14.4156 16.039 14.1689 16.039Z" fill="#BDBFC2" stroke="#BDBFC2" stroke-width="0.3375"/>
</svg>
