<svg width="50" height="32" viewBox="0 0 50 32" fill="none" xmlns="http://www.w3.org/2000/svg">
<g clip-path="url(#clip0_142_3021)">
<rect width="50" height="32" rx="3" fill="white"/>
<g clip-path="url(#clip1_142_3021)">
<path fill-rule="evenodd" clip-rule="evenodd" d="M34.7734 15.4214V22.0001H38.4516V18.1016H42.6202C44.3746 18.0886 45.865 16.975 46.427 15.4214H34.7734Z" fill="#37A72E"/>
<path fill-rule="evenodd" clip-rule="evenodd" d="M34.2832 10C34.4975 12.689 37.0576 14.8122 40.1844 14.8122C40.1946 14.8122 46.58 14.8122 46.58 14.8122C46.6271 14.5656 46.6518 14.311 46.6518 14.0508C46.6518 11.8233 44.8432 10.0165 42.6059 10.0001L34.2832 10Z" fill="url(#paint0_linear_142_3021)"/>
<path fill-rule="evenodd" clip-rule="evenodd" d="M28.8395 14.7482L28.8423 14.7421L28.8427 14.7422C28.8804 14.6749 28.9527 14.6294 29.0356 14.6294C29.1555 14.6294 29.253 14.7243 29.2562 14.8426L29.2563 14.8426V21.9391H32.9345V10H29.2563C28.7899 10.0154 28.2629 10.3555 28.067 10.773L25.1399 17.0104C25.1327 17.0359 25.1214 17.0597 25.1067 17.0811L25.1057 17.0831L25.1054 17.083C25.0611 17.1464 24.9873 17.1878 24.9038 17.1878C24.7684 17.1878 24.6586 17.0787 24.6586 16.9442V10H20.9805V21.9391H24.6586V21.9377C25.12 21.9138 25.6346 21.5775 25.8276 21.1661L28.8319 14.7643C28.8342 14.7588 28.8367 14.7534 28.8395 14.7482Z" fill="#37A72E"/>
<path fill-rule="evenodd" clip-rule="evenodd" d="M15.1052 14.9523L12.9555 21.9391H10.3095L8.15844 14.948C8.1377 14.8361 8.03897 14.7513 7.92031 14.7513C7.78657 14.7513 7.67816 14.859 7.67816 14.9919C7.67816 14.9929 7.67817 14.9939 7.67818 14.9949L7.67816 21.9391H4V10H7.15709H8.09733C8.77413 10 9.48336 10.5219 9.68113 11.1647L11.4712 16.9826C11.5603 17.272 11.7048 17.2717 11.7937 16.9826L13.5838 11.1647C13.7817 10.5214 14.4907 10 15.1676 10L16.1076 10H19.2644V21.9391H15.5862V14.9949C15.5862 14.9939 15.5862 14.9929 15.5862 14.9919C15.5862 14.859 15.4778 14.7513 15.3441 14.7513C15.2239 14.7513 15.1242 14.8382 15.1052 14.9523Z" fill="#37A72E"/>
</g>
</g>
<defs>
<linearGradient id="paint0_linear_142_3021" x1="34.2832" y1="12.4061" x2="46.6518" y2="12.4061" gradientUnits="userSpaceOnUse">
<stop stop-color="#00A0E5"/>
<stop offset="1" stop-color="#0077C3"/>
</linearGradient>
<clipPath id="clip0_142_3021">
<rect width="50" height="32" fill="white"/>
</clipPath>
<clipPath id="clip1_142_3021">
<rect width="42.6667" height="12" fill="white" transform="translate(4 10)"/>
</clipPath>
</defs>
</svg>
