<svg width="42" height="42" viewBox="0 0 42 42" fill="none" xmlns="http://www.w3.org/2000/svg">
<path d="M27.4535 16.16C27.4535 17.28 26.9735 18.52 26.0135 19.88L23.7035 23.12C23.3435 23.62 23.1635 24.16 23.1635 24.74V25.64H20.1035V24.59C20.1035 23.57 20.4435 22.58 21.1235 21.62L23.4635 18.44C24.0835 17.6 24.3935 16.83 24.3935 16.13C24.3935 15.29 24.1135 14.59 23.5535 14.03C22.9935 13.47 22.2935 13.19 21.4535 13.19C20.5735 13.19 19.8735 13.46 19.3535 14C18.8535 14.52 18.5835 15.26 18.5435 16.22H15.4835C15.5435 15.3 15.6935 14.53 15.9335 13.91C16.3935 12.83 17.1035 11.99 18.0635 11.39C19.0435 10.77 20.1735 10.46 21.4535 10.46C23.1735 10.46 24.6035 11 25.7435 12.08C26.8835 13.16 27.4535 14.52 27.4535 16.16ZM23.5535 30.14C23.5535 30.68 23.3635 31.14 22.9835 31.52C22.6035 31.9 22.1435 32.09 21.6035 32.09C21.0635 32.09 20.6035 31.9 20.2235 31.52C19.8635 31.14 19.6835 30.69 19.6835 30.17C19.6835 29.63 19.8635 29.17 20.2235 28.79C20.6035 28.41 21.0635 28.22 21.6035 28.22C22.1235 28.22 22.5735 28.41 22.9535 28.79C23.3535 29.17 23.5535 29.62 23.5535 30.14Z" fill="#1D1D1B"/>
<rect x="1" y="1" width="40" height="40" rx="20" stroke="#1D1D1B" stroke-width="2"/>
</svg>
