<svg width="42" height="42" viewBox="0 0 42 42" fill="none" xmlns="http://www.w3.org/2000/svg">
<g id="vuesax/outline/truck-fast">
<g id="truck-fast">
<path id="Vector" d="M22.7496 25.8125H20.9996C20.2821 25.8125 19.6871 25.2175 19.6871 24.5C19.6871 23.7825 20.2821 23.1875 20.9996 23.1875H22.7496C23.9571 23.1875 24.9371 22.2075 24.9371 21V4.8125H10.4996C8.43461 4.8125 6.54456 5.93247 5.52956 7.73497C5.17956 8.36497 4.37464 8.59254 3.74464 8.24254C3.11464 7.89254 2.88707 7.0875 3.23707 6.4575C4.70707 3.8325 7.48961 2.1875 10.4996 2.1875H26.2496C26.9671 2.1875 27.5621 2.7825 27.5621 3.5V21C27.5621 23.66 25.4096 25.8125 22.7496 25.8125Z" fill="#1D1D1B"/>
<path id="Vector_2" d="M33.25 36.3125H31.5C30.7825 36.3125 30.1875 35.7175 30.1875 35C30.1875 33.7925 29.2075 32.8125 28 32.8125C26.7925 32.8125 25.8125 33.7925 25.8125 35C25.8125 35.7175 25.2175 36.3125 24.5 36.3125H17.5C16.7825 36.3125 16.1875 35.7175 16.1875 35C16.1875 33.7925 15.2075 32.8125 14 32.8125C12.7925 32.8125 11.8125 33.7925 11.8125 35C11.8125 35.7175 11.2175 36.3125 10.5 36.3125H8.75C5.1275 36.3125 2.1875 33.3725 2.1875 29.75C2.1875 29.0325 2.7825 28.4375 3.5 28.4375C4.2175 28.4375 4.8125 29.0325 4.8125 29.75C4.8125 31.92 6.58 33.6875 8.75 33.6875H9.36246C9.93996 31.675 11.795 30.1875 14 30.1875C16.205 30.1875 18.06 31.675 18.6375 33.6875H23.38C23.9575 31.675 25.8125 30.1875 28.0175 30.1875C30.2225 30.1875 32.0775 31.675 32.655 33.6875H33.25C35.42 33.6875 37.1875 31.92 37.1875 29.75V25.8125H33.25C31.57 25.8125 30.1875 24.43 30.1875 22.75V17.5C30.1875 15.82 31.5525 14.4375 33.25 14.4375L31.3775 11.165C30.9925 10.4825 30.2575 10.0625 29.47 10.0625H27.5625V21C27.5625 23.66 25.41 25.8125 22.75 25.8125H21C20.2825 25.8125 19.6875 25.2175 19.6875 24.5C19.6875 23.7825 20.2825 23.1875 21 23.1875H22.75C23.9575 23.1875 24.9375 22.2075 24.9375 21V8.75C24.9375 8.0325 25.5325 7.4375 26.25 7.4375H29.47C31.2025 7.4375 32.795 8.36503 33.6525 9.87003L36.645 15.1025C36.8725 15.505 36.8725 16.0125 36.645 16.415C36.4175 16.8175 35.98 17.0625 35.5075 17.0625H33.25C33.005 17.0625 32.8125 17.255 32.8125 17.5V22.75C32.8125 22.995 33.005 23.1875 33.25 23.1875H38.5C39.2175 23.1875 39.8125 23.7825 39.8125 24.5V29.75C39.8125 33.3725 36.8725 36.3125 33.25 36.3125Z" fill="#1D1D1B"/>
<path id="Vector_3" d="M14 39.8125C11.34 39.8125 9.1875 37.66 9.1875 35C9.1875 32.34 11.34 30.1875 14 30.1875C16.66 30.1875 18.8125 32.34 18.8125 35C18.8125 37.66 16.66 39.8125 14 39.8125ZM14 32.8125C12.7925 32.8125 11.8125 33.7925 11.8125 35C11.8125 36.2075 12.7925 37.1875 14 37.1875C15.2075 37.1875 16.1875 36.2075 16.1875 35C16.1875 33.7925 15.2075 32.8125 14 32.8125Z" fill="#1D1D1B"/>
<path id="Vector_4" d="M28 39.8125C25.34 39.8125 23.1875 37.66 23.1875 35C23.1875 32.34 25.34 30.1875 28 30.1875C30.66 30.1875 32.8125 32.34 32.8125 35C32.8125 37.66 30.66 39.8125 28 39.8125ZM28 32.8125C26.7925 32.8125 25.8125 33.7925 25.8125 35C25.8125 36.2075 26.7925 37.1875 28 37.1875C29.2075 37.1875 30.1875 36.2075 30.1875 35C30.1875 33.7925 29.2075 32.8125 28 32.8125Z" fill="#1D1D1B"/>
<path id="Vector_5" d="M38.5 25.8125H33.25C31.57 25.8125 30.1875 24.43 30.1875 22.75V17.5C30.1875 15.82 31.57 14.4375 33.25 14.4375H35.5075C35.98 14.4375 36.4175 14.6825 36.645 15.1025L39.6375 20.3525C39.7425 20.545 39.8125 20.7725 39.8125 21V24.5C39.8125 25.2175 39.2175 25.8125 38.5 25.8125ZM33.25 17.0625C33.005 17.0625 32.8125 17.255 32.8125 17.5V22.75C32.8125 22.995 33.005 23.1875 33.25 23.1875H37.1875V21.35L34.7375 17.0625H33.25Z" fill="#1D1D1B"/>
<path id="Vector_6" d="M14 15.3125H3.5C2.7825 15.3125 2.1875 14.7175 2.1875 14C2.1875 13.2825 2.7825 12.6875 3.5 12.6875H14C14.7175 12.6875 15.3125 13.2825 15.3125 14C15.3125 14.7175 14.7175 15.3125 14 15.3125Z" fill="#1D1D1B"/>
<path id="Vector_7" d="M10.5 20.5625H3.5C2.7825 20.5625 2.1875 19.9675 2.1875 19.25C2.1875 18.5325 2.7825 17.9375 3.5 17.9375H10.5C11.2175 17.9375 11.8125 18.5325 11.8125 19.25C11.8125 19.9675 11.2175 20.5625 10.5 20.5625Z" fill="#1D1D1B"/>
<path id="Vector_8" d="M7 25.8125H3.5C2.7825 25.8125 2.1875 25.2175 2.1875 24.5C2.1875 23.7825 2.7825 23.1875 3.5 23.1875H7C7.7175 23.1875 8.3125 23.7825 8.3125 24.5C8.3125 25.2175 7.7175 25.8125 7 25.8125Z" fill="#1D1D1B"/>
</g>
</g>
</svg>
