<svg width="42" height="42" viewBox="0 0 42 42" fill="none" xmlns="http://www.w3.org/2000/svg">
<g id="vuesax/outline/security-card">
<g id="security-card">
<path id="Vector" d="M18.4796 39.7425C16.5896 39.7425 14.6821 39.2 13.2121 38.0975L5.72211 32.4975C3.74461 31.0275 2.20459 27.93 2.20459 25.445V12.4775C2.20459 9.80002 4.16461 6.9475 6.68461 6.0025L15.3996 2.73001C17.1321 2.08251 19.8446 2.08251 21.5771 2.73001L30.2746 6.0025C32.3221 6.7725 34.0546 8.82001 34.6146 11.095C34.7021 11.48 34.6146 11.9 34.3696 12.215C34.1246 12.53 33.7396 12.7225 33.3371 12.7225L19.4946 12.74C17.2721 12.88 16.7296 13.2475 16.7296 16.485V25.9875C16.7296 29.33 17.1671 29.75 20.5621 29.75H30.9221C31.4646 29.75 31.9546 30.0825 32.1471 30.59C32.3396 31.0975 32.1996 31.675 31.7971 32.0425C31.6046 32.2 31.4471 32.3575 31.2546 32.4975L23.7646 38.115C22.2596 39.2 20.3696 39.7425 18.4796 39.7425ZM18.4796 4.88253C17.6921 4.88253 16.8871 4.98753 16.3096 5.21503L7.59459 8.48752C6.12459 9.04752 4.8121 10.92 4.8121 12.5125V25.48C4.8121 27.125 5.96711 29.435 7.27961 30.415L14.7696 36.015C16.7821 37.5025 20.1596 37.5025 22.1721 36.015L27.0196 32.3925H20.5446C15.7146 32.3925 14.0871 30.7825 14.0871 26.005V16.5025C14.0871 12.775 14.9796 10.4125 19.4071 10.1325L20.5446 10.115H31.3071C30.7821 9.36251 30.0821 8.76752 29.3471 8.48752L20.6496 5.21503C20.0546 4.98753 19.2671 4.88253 18.4796 4.88253Z" fill="#1D1D1B"/>
<path id="Vector_2" d="M38.4994 20.9475H15.3994C14.6819 20.9475 14.0869 20.3525 14.0869 19.635C14.0869 18.9175 14.6819 18.3225 15.3994 18.3225H38.4994C39.2169 18.3225 39.8119 18.9175 39.8119 19.635C39.8119 20.3525 39.2169 20.9475 38.4994 20.9475Z" fill="#1D1D1B"/>
<path id="Vector_3" d="M33.3544 32.3752H20.5444C15.7144 32.3752 14.0869 30.7652 14.0869 25.9877V16.4852C14.0869 12.7577 14.9794 10.3952 19.4069 10.1152L20.5444 10.0977H33.3544C38.1844 10.0977 39.8119 11.7077 39.8119 16.4852V26.1977C39.7769 30.8177 38.1494 32.3752 33.3544 32.3752ZM20.5444 12.7227L19.4769 12.7402C17.2544 12.8802 16.7119 13.2477 16.7119 16.4852V25.9877C16.7119 29.3302 17.1494 29.7502 20.5444 29.7502H33.3544C36.6969 29.7502 37.1519 29.3127 37.1869 26.1977V16.5027C37.1869 13.1602 36.7494 12.7402 33.3544 12.7402H20.5444V12.7227Z" fill="#1D1D1B"/>
<path id="Vector_4" d="M22.1375 28.0176H19.7925C19.075 28.0176 18.48 27.4226 18.48 26.7051C18.48 25.9876 19.075 25.3926 19.7925 25.3926H22.1375C22.855 25.3926 23.45 25.9876 23.45 26.7051C23.45 27.4226 22.8725 28.0176 22.1375 28.0176Z" fill="#1D1D1B"/>
<path id="Vector_5" d="M31.535 28.0176H25.8125C25.095 28.0176 24.5 27.4226 24.5 26.7051C24.5 25.9876 25.095 25.3926 25.8125 25.3926H31.535C32.2525 25.3926 32.8475 25.9876 32.8475 26.7051C32.8475 27.4226 32.27 28.0176 31.535 28.0176Z" fill="#1D1D1B"/>
</g>
</g>
</svg>
