<svg width="35" height="34" viewBox="0 0 35 34" fill="none" xmlns="http://www.w3.org/2000/svg">
<path fill-rule="evenodd" clip-rule="evenodd" d="M15.1588 5.5C9.86604 5.5 5.57544 9.7906 5.57544 15.0833C5.57544 20.3761 9.86604 24.6667 15.1588 24.6667C17.46 24.6667 19.5718 23.8556 21.2238 22.5037L26.9395 28.2193C27.3137 28.5936 27.9205 28.5936 28.2948 28.2193C28.669 27.8451 28.669 27.2383 28.2948 26.864L22.5791 21.1484C23.931 19.4963 24.7421 17.3846 24.7421 15.0833C24.7421 9.7906 20.4515 5.5 15.1588 5.5ZM7.49211 15.0833C7.49211 10.8491 10.9246 7.41667 15.1588 7.41667C19.393 7.41667 22.8254 10.8491 22.8254 15.0833C22.8254 19.3175 19.393 22.75 15.1588 22.75C10.9246 22.75 7.49211 19.3175 7.49211 15.0833Z" fill="#1D1D1B" stroke="#1D1D1B" stroke-width="0.6"/>
</svg>
