<svg width="24" height="24" viewBox="0 0 24 24" fill="none" xmlns="http://www.w3.org/2000/svg">
<g id="vuesax/outline/share">
<g id="share">
<path id="Vector" d="M20.6196 13.0701C20.2396 13.0701 19.9196 12.7801 19.8696 12.4001C19.6296 10.1401 18.4096 8.0901 16.5296 6.7901C16.1896 6.5501 16.1096 6.0901 16.3396 5.7501C16.5796 5.4101 17.0496 5.3301 17.3796 5.5601C19.6196 7.1101 21.0596 9.5501 21.3496 12.2401C21.3896 12.6501 21.0996 13.0201 20.6796 13.0701C20.6696 13.0701 20.6396 13.0701 20.6196 13.0701Z" fill="#1D1D1B"/>
<path id="Vector_2" d="M3.48991 13.12C3.45991 13.12 3.43991 13.12 3.40991 13.12C2.99991 13.07 2.69991 12.7 2.73991 12.29C3.00991 9.60001 4.43991 7.17001 6.64991 5.60001C6.98991 5.36001 7.45991 5.44001 7.69991 5.78001C7.93991 6.12001 7.85991 6.59001 7.51991 6.83001C5.65991 8.14001 4.45991 10.19 4.22991 12.45C4.19991 12.83 3.86991 13.12 3.48991 13.12Z" fill="#1D1D1B"/>
<path id="Vector_3" d="M12.06 22.61C10.58 22.61 9.16997 22.27 7.84997 21.61C7.47997 21.42 7.32997 20.97 7.51997 20.6C7.70997 20.23 8.15997 20.08 8.52997 20.27C10.69 21.36 13.29 21.38 15.47 20.33C15.84 20.15 16.29 20.31 16.47 20.68C16.65 21.05 16.49 21.5 16.12 21.68C14.84 22.3 13.48 22.61 12.06 22.61Z" fill="#1D1D1B"/>
<path id="Vector_4" d="M12.0603 8.43988C10.1103 8.43988 8.53027 6.85988 8.53027 4.90988C8.53027 2.95988 10.1103 1.37988 12.0603 1.37988C14.0103 1.37988 15.5903 2.95988 15.5903 4.90988C15.5903 6.85988 14.0003 8.43988 12.0603 8.43988ZM12.0603 2.88988C10.9403 2.88988 10.0303 3.79988 10.0303 4.91988C10.0303 6.03988 10.9403 6.94988 12.0603 6.94988C13.1803 6.94988 14.0903 6.03988 14.0903 4.91988C14.0903 3.79988 13.1703 2.88988 12.0603 2.88988Z" fill="#1D1D1B"/>
<path id="Vector_5" d="M4.8298 20.67C2.8798 20.67 1.2998 19.09 1.2998 17.14C1.2998 15.2 2.8798 13.61 4.8298 13.61C6.7798 13.61 8.3598 15.19 8.3598 17.14C8.3598 19.08 6.7798 20.67 4.8298 20.67ZM4.8298 15.11C3.7098 15.11 2.7998 16.02 2.7998 17.14C2.7998 18.26 3.7098 19.17 4.8298 19.17C5.9498 19.17 6.85981 18.26 6.85981 17.14C6.85981 16.02 5.9498 15.11 4.8298 15.11Z" fill="#1D1D1B"/>
<path id="Vector_6" d="M19.1696 20.67C17.2196 20.67 15.6396 19.09 15.6396 17.14C15.6396 15.2 17.2196 13.61 19.1696 13.61C21.1196 13.61 22.6996 15.19 22.6996 17.14C22.6896 19.08 21.1096 20.67 19.1696 20.67ZM19.1696 15.11C18.0496 15.11 17.1396 16.02 17.1396 17.14C17.1396 18.26 18.0496 19.17 19.1696 19.17C20.2896 19.17 21.1996 18.26 21.1996 17.14C21.1896 16.02 20.2896 15.11 19.1696 15.11Z" fill="#1D1D1B"/>
</g>
</g>
</svg>
