<svg width="56" height="55" viewBox="0 0 56 55" fill="none" xmlns="http://www.w3.org/2000/svg">
<path d="M37.5616 38.5805L38.4871 38.9591L38.5236 38.8701L38.5423 38.7757L37.5616 38.5805ZM35.255 39.3843L34.6466 40.1779L34.7429 40.2518L34.8542 40.3005L35.255 39.3843ZM42 16.2836L42.9808 16.4788L43.0023 16.3706L42.9997 16.2603L42 16.2836ZM39.9381 15.6895L40.3033 16.6204L40.3254 16.6117L40.3471 16.602L39.9381 15.6895ZM15.0899 25.44L15.4228 26.383L15.4391 26.3772L15.4552 26.3709L15.0899 25.44ZM14.0066 26.5933L13.0166 26.7347L14.0066 26.5933ZM15.055 27.6767L14.7077 28.6144L14.7223 28.6199L14.7372 28.6248L15.055 27.6767ZM21.3107 29.7736L22.2672 29.4818L22.1169 28.9891L21.6285 28.8254L21.3107 29.7736ZM23.5823 37.1476L24.5394 36.8576L24.5367 36.8487L24.5338 36.8398L23.5823 37.1476ZM24.2464 38.3359L24.6177 37.4074L24.4917 37.357L24.3568 37.342L24.2464 38.3359ZM24.9104 38.231L25.5243 39.0204L25.5538 38.9975L25.5814 38.9724L24.9104 38.231ZM28.9643 34.5615L29.5728 33.7679L28.9113 33.2607L28.2933 33.8201L28.9643 34.5615ZM37.1772 20.2327L36.1794 20.1662L36.1351 20.8297L36.73 21.1271L37.1772 20.2327ZM36.3384 20.2327L35.8239 19.3752L35.8127 19.3819L35.8017 19.3889L36.3384 20.2327ZM36.8626 20.7919L37.5697 21.499L37.5828 21.4859L37.5954 21.4723L36.8626 20.7919ZM25.2249 31.2763L25.7796 32.1084L25.8387 32.0689L25.8917 32.0215L25.2249 31.2763ZM25.0502 31.5908L26.0434 31.7071L26.0502 31.6491V31.5908H25.0502ZM24.6657 34.876L25.6463 35.0721L25.6543 35.0324L25.659 34.9922L24.6657 34.876ZM24.0367 34.9459L23.0802 35.2378L23.084 35.25L23.088 35.2621L24.0367 34.9459ZM22.3941 29.5638L23.3506 29.2719L23.3468 29.2597L23.3428 29.2476L22.3941 29.5638ZM22.6038 28.9697L22.0671 28.126L22.058 28.1317L22.0491 28.1377L22.6038 28.9697ZM37.5616 38.5805C36.636 38.2019 36.6362 38.2014 36.6364 38.2009C36.6365 38.2007 36.6367 38.2003 36.6368 38.1999C36.6371 38.1993 36.6373 38.1987 36.6376 38.1981C36.6381 38.197 36.6385 38.1959 36.6389 38.1949C36.6398 38.1929 36.6405 38.1912 36.6411 38.1899C36.6422 38.1871 36.6429 38.1856 36.6431 38.1852C36.6435 38.1844 36.6419 38.1879 36.6384 38.1949C36.6311 38.2092 36.6169 38.2358 36.5956 38.2691C36.5504 38.3394 36.4883 38.4165 36.4138 38.4758C36.3448 38.5309 36.2725 38.5658 36.1855 38.5778C36.1001 38.5897 35.9325 38.5892 35.6558 38.4682L34.8542 40.3005C35.4163 40.5464 35.9563 40.6289 36.4607 40.5588C36.9634 40.489 37.3629 40.2771 37.6609 40.0394C37.9534 39.8061 38.1534 39.5446 38.2786 39.3495C38.3425 39.2501 38.3905 39.1623 38.4242 39.0954C38.4412 39.0617 38.4547 39.0329 38.4651 39.01C38.4703 38.9985 38.4747 38.9884 38.4784 38.9799C38.4802 38.9757 38.4819 38.9718 38.4833 38.9683C38.4841 38.9666 38.4847 38.965 38.4854 38.9634C38.4857 38.9627 38.486 38.9619 38.4863 38.9612C38.4864 38.9608 38.4866 38.9603 38.4867 38.9601C38.4869 38.9596 38.4871 38.9591 37.5616 38.5805ZM41.0192 16.0884L36.5808 38.3853L38.5423 38.7757L42.9808 16.4788L41.0192 16.0884ZM39.9381 15.6895C40.3471 16.602 40.3468 16.6021 40.3466 16.6022C40.3465 16.6023 40.3462 16.6024 40.3461 16.6024C40.3458 16.6026 40.3455 16.6027 40.3452 16.6028C40.3447 16.6031 40.3443 16.6032 40.3441 16.6034C40.3435 16.6036 40.3434 16.6037 40.3437 16.6035C40.3443 16.6032 40.3467 16.6022 40.3507 16.6005C40.3586 16.5972 40.3729 16.5912 40.3925 16.5835C40.432 16.5679 40.4914 16.5457 40.5634 16.5224C40.7159 16.473 40.8868 16.4313 41.0326 16.4201C41.2008 16.4071 41.1948 16.4448 41.1198 16.3964C41.0692 16.3636 41.0276 16.3157 41.0048 16.2695C40.9855 16.2304 40.9985 16.2308 41.0003 16.3068L42.9997 16.2603C42.9852 15.6344 42.7407 15.063 42.2063 14.7172C41.7415 14.4164 41.2222 14.3996 40.8792 14.4259C40.514 14.454 40.1759 14.5456 39.9473 14.6196C39.8287 14.658 39.7294 14.695 39.658 14.7232C39.6221 14.7374 39.5927 14.7495 39.571 14.7588C39.5601 14.7634 39.5511 14.7673 39.5441 14.7703C39.5405 14.7719 39.5375 14.7732 39.535 14.7743C39.5337 14.7749 39.5326 14.7754 39.5316 14.7758C39.5311 14.776 39.5306 14.7762 39.5302 14.7764C39.53 14.7765 39.5297 14.7767 39.5296 14.7767C39.5293 14.7768 39.529 14.777 39.9381 15.6895ZM15.4552 26.3709L40.3033 16.6204L39.5728 14.7586L14.7247 24.5091L15.4552 26.3709ZM14.9965 26.4519C15.0134 26.5699 14.9674 26.6527 14.9592 26.6647C14.9577 26.6671 14.9645 26.6567 14.9868 26.6358C15.0087 26.6153 15.039 26.5907 15.0781 26.5636C15.1584 26.5081 15.2492 26.46 15.3258 26.4246C15.3624 26.4076 15.392 26.3953 15.4101 26.3881C15.4191 26.3845 15.4251 26.3822 15.4274 26.3813C15.4286 26.3809 15.4289 26.3808 15.4281 26.3811C15.4277 26.3812 15.4271 26.3815 15.4262 26.3818C15.4258 26.3819 15.4253 26.3821 15.4247 26.3823C15.4244 26.3824 15.4241 26.3825 15.4238 26.3826C15.4236 26.3827 15.4234 26.3828 15.4233 26.3828C15.423 26.3829 15.4228 26.383 15.0899 25.44C14.7571 24.497 14.7569 24.4971 14.7566 24.4972C14.7565 24.4972 14.7562 24.4973 14.756 24.4974C14.7556 24.4976 14.7552 24.4977 14.7548 24.4979C14.7539 24.4982 14.753 24.4985 14.752 24.4989C14.7499 24.4996 14.7476 24.5004 14.745 24.5014C14.7397 24.5033 14.7333 24.5056 14.7258 24.5085C14.7108 24.5141 14.6913 24.5215 14.668 24.5308C14.6217 24.5494 14.5591 24.5756 14.486 24.6094C14.3431 24.6756 14.1434 24.7782 13.9397 24.9192C13.6157 25.1435 12.8761 25.751 13.0166 26.7347L14.9965 26.4519ZM15.055 27.6767C15.4023 26.7389 15.4026 26.739 15.4029 26.7392C15.403 26.7392 15.4033 26.7393 15.4035 26.7394C15.4038 26.7395 15.4042 26.7396 15.4045 26.7398C15.4052 26.74 15.4058 26.7403 15.4064 26.7405C15.4076 26.7409 15.4086 26.7413 15.4093 26.7416C15.4109 26.7422 15.4116 26.7425 15.4116 26.7425C15.4116 26.7425 15.4088 26.7413 15.4035 26.7391C15.3927 26.7346 15.3728 26.7258 15.3466 26.7129C15.2922 26.6862 15.2219 26.6472 15.154 26.5984C14.9879 26.4789 14.9917 26.4179 14.9965 26.4519L13.0166 26.7347C13.1263 27.5026 13.6543 27.9833 13.9862 28.222C14.1673 28.3523 14.3394 28.4465 14.4652 28.5083C14.5291 28.5397 14.5837 28.5639 14.625 28.5814C14.6457 28.5901 14.6632 28.5972 14.6771 28.6027C14.6841 28.6055 14.6901 28.6078 14.6952 28.6098C14.6978 28.6107 14.7001 28.6116 14.7022 28.6124C14.7032 28.6128 14.7042 28.6131 14.7051 28.6135C14.7056 28.6137 14.706 28.6138 14.7064 28.614C14.7067 28.6141 14.707 28.6142 14.7071 28.6142C14.7074 28.6143 14.7077 28.6144 15.055 27.6767ZM21.6285 28.8254L15.3728 26.7285L14.7372 28.6248L20.9929 30.7217L21.6285 28.8254ZM24.5338 36.8398C24.3446 36.255 23.7796 34.4211 23.2584 32.7218C22.9986 31.8747 22.7508 31.0647 22.5679 30.4664C22.4765 30.1672 22.4013 29.9211 22.349 29.7497C22.3228 29.664 22.3023 29.597 22.2884 29.5514C22.2815 29.5286 22.2762 29.5112 22.2726 29.4995C22.2708 29.4936 22.2695 29.4892 22.2685 29.4862C22.2681 29.4847 22.2678 29.4836 22.2675 29.4829C22.2674 29.4825 22.2673 29.4822 22.2673 29.482C22.2672 29.482 22.2672 29.4819 22.2672 29.4818C22.2672 29.4818 22.2672 29.4818 21.3107 29.7736C20.3542 30.0654 20.3542 30.0654 20.3543 30.0655C20.3543 30.0655 20.3543 30.0656 20.3543 30.0657C20.3544 30.0659 20.3545 30.0661 20.3546 30.0665C20.3548 30.0673 20.3552 30.0684 20.3556 30.0699C20.3565 30.0729 20.3579 30.0773 20.3597 30.0832C20.3633 30.095 20.3686 30.1124 20.3756 30.1352C20.3895 30.1809 20.41 30.2479 20.4361 30.3337C20.4885 30.5053 20.5638 30.7516 20.6553 31.051C20.8383 31.6497 21.0863 32.4603 21.3463 33.3082C21.8648 34.9989 22.4357 36.8521 22.6309 37.4555L24.5338 36.8398ZM24.2464 38.3359C24.3568 37.342 24.3585 37.3422 24.3602 37.3424C24.3607 37.3424 24.3624 37.3426 24.3636 37.3428C24.3658 37.343 24.3681 37.3433 24.3703 37.3436C24.3748 37.3441 24.3793 37.3447 24.3838 37.3454C24.3927 37.3466 24.4016 37.348 24.4104 37.3494C24.428 37.3524 24.4453 37.3558 24.4622 37.3596C24.4962 37.3672 24.5284 37.3765 24.5588 37.387C24.6199 37.4081 24.671 37.4334 24.7121 37.4584C24.7941 37.5084 24.8285 37.5523 24.8263 37.5495C24.8144 37.5347 24.695 37.3712 24.5394 36.8576L22.6253 37.4376C22.8192 38.0774 23.0318 38.508 23.2645 38.7989C23.3846 38.949 23.5195 39.0738 23.6714 39.1663C23.7474 39.2127 23.8258 39.2497 23.9055 39.2773C23.9452 39.291 23.9845 39.3021 24.0232 39.3108C24.0426 39.3152 24.0617 39.3189 24.0805 39.322C24.0899 39.3236 24.0992 39.325 24.1085 39.3263C24.1131 39.327 24.1177 39.3276 24.1223 39.3281C24.1245 39.3284 24.1268 39.3287 24.1291 39.329C24.1302 39.3291 24.1319 39.3293 24.1325 39.3294C24.1342 39.3296 24.1359 39.3297 24.2464 38.3359ZM24.9104 38.231C24.2964 37.4417 24.2967 37.4414 24.2971 37.4412C24.2972 37.4411 24.2975 37.4409 24.2977 37.4407C24.2981 37.4404 24.2985 37.4401 24.2989 37.4397C24.2997 37.4391 24.3005 37.4385 24.3013 37.4379C24.3029 37.4367 24.3044 37.4355 24.3059 37.4344C24.3088 37.4322 24.3116 37.4301 24.3141 37.4282C24.3193 37.4245 24.3237 37.4213 24.3276 37.4186C24.3352 37.4134 24.3409 37.4098 24.3452 37.4072C24.3524 37.4029 24.3608 37.3985 24.3731 37.3941C24.3929 37.387 24.4926 37.3573 24.6177 37.4074L23.875 39.2643C24.3496 39.4542 24.7813 39.3721 25.0458 39.2776C25.1803 39.2295 25.2892 39.1727 25.3663 39.1269C25.4056 39.1036 25.4386 39.082 25.4647 39.0639C25.4779 39.0548 25.4894 39.0465 25.4994 39.0392C25.5043 39.0356 25.5089 39.0322 25.513 39.029C25.5151 39.0274 25.5171 39.0259 25.519 39.0245C25.5199 39.0238 25.5208 39.0231 25.5217 39.0224C25.5222 39.022 25.5226 39.0217 25.523 39.0214C25.5232 39.0212 25.5236 39.0209 25.5237 39.0209C25.524 39.0206 25.5243 39.0204 24.9104 38.231ZM28.2933 33.8201L24.2393 37.4896L25.5814 38.9724L29.6354 35.3029L28.2933 33.8201ZM35.8634 38.5907L29.5728 33.7679L28.3559 35.3551L34.6466 40.1779L35.8634 38.5907ZM38.175 20.2992C38.1875 20.1112 38.1687 19.8465 38.0187 19.5848C37.8562 19.3013 37.6054 19.1356 37.3649 19.0589C36.9745 18.9343 36.6092 19.0398 36.4782 19.0799C36.2943 19.1362 36.1295 19.2131 36.0248 19.2658C35.969 19.2938 35.9221 19.3192 35.8881 19.3382C35.871 19.3478 35.8568 19.3559 35.846 19.3622C35.8406 19.3653 35.836 19.368 35.8323 19.3702C35.8305 19.3713 35.8288 19.3723 35.8274 19.3731C35.8267 19.3735 35.8261 19.3739 35.8255 19.3742C35.8252 19.3744 35.8249 19.3746 35.8247 19.3748C35.8245 19.3748 35.8244 19.3749 35.8243 19.375C35.8241 19.3751 35.8239 19.3752 36.3384 20.2327C36.8529 21.0902 36.8527 21.0903 36.8526 21.0904C36.8525 21.0904 36.8523 21.0905 36.8522 21.0906C36.852 21.0907 36.8518 21.0908 36.8516 21.0909C36.8513 21.0912 36.8509 21.0914 36.8507 21.0915C36.8501 21.0919 36.8497 21.0921 36.8495 21.0922C36.8491 21.0924 36.8495 21.0922 36.8504 21.0917C36.8524 21.0905 36.857 21.0879 36.8637 21.0842C36.8773 21.0766 36.8984 21.0651 36.924 21.0522C36.9499 21.0392 36.9775 21.0262 37.0042 21.0148C37.0319 21.003 37.0519 20.9959 37.0636 20.9923C37.0781 20.9879 37.065 20.9934 37.03 20.997C37.0112 20.999 36.9786 21.0011 36.9355 20.9984C36.8927 20.9958 36.8304 20.9877 36.7568 20.9642C36.6818 20.9402 36.5928 20.8995 36.5044 20.8317C36.4143 20.7626 36.3392 20.6764 36.2836 20.5796C36.1747 20.3896 36.1756 20.2231 36.1794 20.1662L38.175 20.2992ZM37.5954 21.4723C37.8404 21.2086 38.0638 20.9204 38.1538 20.5964C38.2056 20.4101 38.2317 20.1425 38.1129 19.8616C38.0549 19.7245 37.9727 19.6108 37.881 19.5213C37.8362 19.4775 37.7908 19.4412 37.7474 19.4111C37.7257 19.3961 37.7045 19.3827 37.6839 19.3706C37.6737 19.3646 37.6635 19.3589 37.6536 19.3535C37.6486 19.3508 37.6437 19.3482 37.6388 19.3456C37.6364 19.3444 37.634 19.3431 37.6316 19.3419C37.6304 19.3413 37.6286 19.3404 37.628 19.3401C37.6262 19.3392 37.6244 19.3383 37.1772 20.2327C36.73 21.1271 36.7282 21.1262 36.7264 21.1253C36.7258 21.125 36.724 21.1241 36.7228 21.1235C36.7204 21.1223 36.718 21.121 36.7155 21.1198C36.7107 21.1172 36.7058 21.1147 36.7009 21.112C36.6911 21.1067 36.6812 21.1011 36.6712 21.0952C36.6511 21.0835 36.6306 21.0704 36.6098 21.0561C36.5682 21.0273 36.5254 20.9929 36.4836 20.952C36.3977 20.8682 36.3229 20.7638 36.2709 20.6409C36.1641 20.3884 36.1968 20.1689 36.2268 20.0612C36.255 19.9596 36.2911 19.9142 36.2742 19.9392C36.2609 19.959 36.2203 20.014 36.1298 20.1114L37.5954 21.4723ZM25.8917 32.0215C27.1971 30.8535 37.1243 21.9444 37.5697 21.499L36.1555 20.0848C36.1566 20.0837 36.1539 20.0864 36.145 20.0949C36.1369 20.1026 36.126 20.113 36.1119 20.1262C36.0838 20.1526 36.0464 20.1873 35.9995 20.2305C35.9059 20.3168 35.7793 20.4326 35.6233 20.5747C35.3116 20.8585 34.8868 21.2433 34.3837 21.6979C33.3776 22.6069 32.0611 23.7923 30.7158 25.0022C28.0251 27.4222 25.2212 29.9378 24.5581 30.5311L25.8917 32.0215ZM26.0502 31.5908C26.0502 31.6948 26.0222 31.808 25.962 31.9112C25.9044 32.01 25.8334 32.0725 25.7796 32.1084L24.6702 30.4442C24.3349 30.6678 24.0502 31.0631 24.0502 31.5908H26.0502ZM25.659 34.9922L26.0434 31.7071L24.0569 31.4746L23.6725 34.7597L25.659 34.9922ZM23.088 35.2621C23.3039 35.9099 23.9137 36.2082 24.4606 36.1553C25.0114 36.102 25.5204 35.7015 25.6463 35.0721L23.6852 34.6798C23.7411 34.3999 23.988 34.1917 24.268 34.1646C24.5441 34.1378 24.8743 34.2964 24.9854 34.6296L23.088 35.2621ZM21.4377 29.8557L23.0802 35.2378L24.9931 34.654L23.3506 29.2719L21.4377 29.8557ZM22.0491 28.1377C21.452 28.5357 21.2376 29.2566 21.4454 29.8801L23.3428 29.2476C23.4108 29.4517 23.3362 29.6833 23.1585 29.8018L22.0491 28.1377ZM35.8017 19.3889L22.0671 28.126L23.1405 29.8135L36.8752 21.0764L35.8017 19.3889Z" fill="#1D1D1B"/>

</svg>
