<svg width="56" height="55" viewBox="0 0 56 55" fill="none" xmlns="http://www.w3.org/2000/svg">
<path d="M33.833 38.2918H22.1663C17.908 38.2918 15.458 35.8418 15.458 31.5835V23.4168C15.458 19.1585 17.908 16.7085 22.1663 16.7085H33.833C38.0913 16.7085 40.5413 19.1585 40.5413 23.4168V31.5835C40.5413 35.8418 38.0913 38.2918 33.833 38.2918ZM22.1663 18.4585C18.8297 18.4585 17.208 20.0802 17.208 23.4168V31.5835C17.208 34.9202 18.8297 36.5418 22.1663 36.5418H33.833C37.1697 36.5418 38.7913 34.9202 38.7913 31.5835V23.4168C38.7913 20.0802 37.1697 18.4585 33.833 18.4585H22.1663Z" fill="#1D1D1B"/>
<path d="M27.9996 28.515C27.0196 28.515 26.0279 28.2116 25.2696 27.5933L21.6179 24.6766C21.2446 24.3733 21.1746 23.825 21.4779 23.4516C21.7812 23.0783 22.3296 23.0083 22.7029 23.3116L26.3546 26.2283C27.2412 26.94 28.7462 26.94 29.6329 26.2283L33.2846 23.3116C33.6579 23.0083 34.2179 23.0666 34.5096 23.4516C34.8129 23.825 34.7546 24.385 34.3696 24.6766L30.7179 27.5933C29.9712 28.2116 28.9796 28.515 27.9996 28.515Z" fill="#1D1D1B"/>

</svg>
