<svg width="56" height="55" viewBox="0 0 56 55" fill="none" xmlns="http://www.w3.org/2000/svg">
<path fill-rule="evenodd" clip-rule="evenodd" d="M43.2658 19.2846C43.4884 18.5429 43.2658 17.9978 42.2071 17.9978H38.7062C37.816 17.9978 37.4059 18.4687 37.1834 18.988C37.1834 18.988 35.403 23.3273 32.8809 26.146C32.0649 26.9619 31.6941 27.2212 31.249 27.2212C31.0264 27.2212 30.7044 26.9619 30.7044 26.2202V19.2846C30.7044 18.3944 30.4461 17.9978 29.7041 17.9978H24.2028C23.6467 17.9978 23.3121 18.4109 23.3121 18.8025C23.3121 19.6464 24.5729 19.841 24.703 22.2145V27.37C24.703 28.5003 24.4989 28.7053 24.0538 28.7053C22.867 28.7053 19.9804 24.3463 18.268 19.3589C17.9324 18.3894 17.5958 17.9978 16.7011 17.9978H13.2003C12.2 17.9978 12 18.4687 12 18.988C12 19.9153 13.187 24.5143 17.5263 30.5967C20.4195 34.7502 24.4949 37.0022 28.2038 37.0022C30.4293 37.0022 30.7044 36.5021 30.7044 35.6407V32.5012C30.7044 31.501 30.9152 31.3014 31.6196 31.3014C32.1392 31.3014 33.0292 31.561 35.1064 33.5637C37.4799 35.937 37.871 37.0022 39.2064 37.0022H42.7072C43.7074 37.0022 44.2075 36.5021 43.919 35.5151C43.6034 34.5314 42.4701 33.1046 40.9663 31.4127C40.1503 30.4482 38.9263 29.4097 38.5557 28.8906C38.0363 28.2229 38.1846 27.9264 38.5557 27.3332C38.5557 27.3332 42.8207 21.3248 43.2658 19.2849V19.2846Z" stroke="#1D1D1B" stroke-width="2"/>

</svg>
