<svg width="25" height="24" viewBox="0 0 25 24" fill="none" xmlns="http://www.w3.org/2000/svg">
<g id="vuesax/outline/trash">
<g id="trash">
<path id="Vector" d="M21.3659 6.72998C21.3459 6.72998 21.3159 6.72998 21.2859 6.72998C15.9959 6.19998 10.7159 5.99998 5.48588 6.52998L3.44588 6.72998C3.02588 6.76998 2.65588 6.46998 2.61588 6.04998C2.57588 5.62998 2.87588 5.26998 3.28588 5.22998L5.32588 5.02998C10.6459 4.48998 16.0359 4.69998 21.4359 5.22998C21.8459 5.26998 22.1459 5.63998 22.1059 6.04998C22.0759 6.43998 21.7459 6.72998 21.3659 6.72998Z" fill="#1D1D1B"/>
<path id="Vector_2" d="M8.86598 5.72C8.82598 5.72 8.78598 5.72 8.73598 5.71C8.33598 5.64 8.05598 5.25 8.12598 4.85L8.34598 3.54C8.50598 2.58 8.72598 1.25 11.056 1.25H13.676C16.016 1.25 16.236 2.63 16.386 3.55L16.606 4.85C16.676 5.26 16.396 5.65 15.996 5.71C15.586 5.78 15.196 5.5 15.136 5.1L14.916 3.8C14.776 2.93 14.746 2.76 13.686 2.76H11.066C10.006 2.76 9.98598 2.9 9.83598 3.79L9.60598 5.09C9.54598 5.46 9.22598 5.72 8.86598 5.72Z" fill="#1D1D1B"/>
<path id="Vector_3" d="M15.5766 22.7501H9.1566C5.6666 22.7501 5.5266 20.8201 5.4166 19.2601L4.7666 9.19007C4.7366 8.78007 5.0566 8.42008 5.4666 8.39008C5.8866 8.37008 6.2366 8.68008 6.2666 9.09008L6.9166 19.1601C7.0266 20.6801 7.0666 21.2501 9.1566 21.2501H15.5766C17.6766 21.2501 17.7166 20.6801 17.8166 19.1601L18.4666 9.09008C18.4966 8.68008 18.8566 8.37008 19.2666 8.39008C19.6766 8.42008 19.9966 8.77007 19.9666 9.19007L19.3166 19.2601C19.2066 20.8201 19.0666 22.7501 15.5766 22.7501Z" fill="#1D1D1B"/>
<path id="Vector_4" d="M14.0263 17.25H10.6963C10.2863 17.25 9.94629 16.91 9.94629 16.5C9.94629 16.09 10.2863 15.75 10.6963 15.75H14.0263C14.4363 15.75 14.7763 16.09 14.7763 16.5C14.7763 16.91 14.4363 17.25 14.0263 17.25Z" fill="#1D1D1B"/>
<path id="Vector_5" d="M14.8662 13.25H9.86621C9.45621 13.25 9.11621 12.91 9.11621 12.5C9.11621 12.09 9.45621 11.75 9.86621 11.75H14.8662C15.2762 11.75 15.6162 12.09 15.6162 12.5C15.6162 12.91 15.2762 13.25 14.8662 13.25Z" fill="#1D1D1B"/>
</g>
</g>
</svg>
