<svg width="33" height="32" viewBox="0 0 33 32" fill="none" xmlns="http://www.w3.org/2000/svg">
<path d="M16.0755 16.9273C12.6843 16.9273 9.92432 14.1673 9.92432 10.7762C9.92432 7.385 12.6843 4.625 16.0755 4.625C19.4666 4.625 22.2266 7.385 22.2266 10.7762C22.2266 14.1673 19.4666 16.9273 16.0755 16.9273ZM16.0755 6.22965C13.5722 6.22965 11.529 8.27291 11.529 10.7762C11.529 13.2794 13.5722 15.3227 16.0755 15.3227C18.5787 15.3227 20.622 13.2794 20.622 10.7762C20.622 8.27291 18.5787 6.22965 16.0755 6.22965Z" fill="#1D1D1B" stroke="#1D1D1B" stroke-width="0.6"/>
<path d="M25.2649 27.625C24.8263 27.625 24.4626 27.2613 24.4626 26.8227C24.4626 23.132 20.697 20.1366 16.0756 20.1366C11.4542 20.1366 7.68864 23.132 7.68864 26.8227C7.68864 27.2613 7.32491 27.625 6.88631 27.625C6.44771 27.625 6.08398 27.2613 6.08398 26.8227C6.08398 22.2548 10.5663 18.532 16.0756 18.532C21.5849 18.532 26.0672 22.2548 26.0672 26.8227C26.0672 27.2613 25.7035 27.625 25.2649 27.625Z" fill="#1D1D1B" stroke="#1D1D1B" stroke-width="0.6"/>
</svg>
