<svg width="211" height="24" viewBox="0 0 211 24" fill="none" xmlns="http://www.w3.org/2000/svg">
<g clip-path="url(#clip0_84_401)">
<path fill-rule="evenodd" clip-rule="evenodd" d="M13.134 13.9705V12.7883H21.809V13.9705C20.9389 13.9705 20.2326 14.6768 20.2326 15.5469V21.7345C18.9941 22.1388 17.6737 22.4561 16.2867 22.6762C14.7718 22.9218 13.1852 23.0498 11.5475 23.0498C5.44687 23.0498 0.497803 18.1058 0.497803 12.0001C0.497803 5.89438 5.44175 0.945312 11.5475 0.945312C14.0911 0.945312 16.517 1.25751 18.7177 1.82049C19.1323 1.92796 19.5366 2.04056 19.9358 2.16339L20.1712 5.08062L20.3401 7.21993L19.3063 7.30182C19.25 7.16364 19.1886 7.03057 19.1272 6.8975C17.776 4.03656 15.3296 2.12757 12.5352 2.12757C8.28222 2.12757 4.83783 6.54436 4.83783 11.995C4.83783 17.4456 8.28222 21.8624 12.5352 21.8624C13.8966 21.8624 15.1761 21.4069 16.2867 20.6136V15.5469C16.2867 14.6768 15.5804 13.9705 14.7104 13.9705H13.134ZM102.345 13.9706V12.7883H111.025V13.9706C110.155 13.9706 109.449 14.6768 109.449 15.5469V21.7345C108.215 22.1388 106.89 22.4561 105.503 22.6762C103.988 22.9219 102.401 23.0498 100.764 23.0498C94.658 23.0498 89.709 18.1059 89.709 12.0001C89.709 5.89442 94.658 0.945352 100.764 0.945352C103.307 0.945352 105.728 1.25755 107.934 1.82053C108.343 1.928 108.748 2.0406 109.147 2.16343L109.382 5.08066L109.551 7.21997L108.517 7.30186C108.461 7.16368 108.4 7.03061 108.338 6.89754C106.987 4.0366 104.541 2.12761 101.746 2.12761C97.4934 2.12761 94.049 6.5444 94.049 11.995C94.049 17.4457 97.4934 21.8624 101.746 21.8624C103.108 21.8624 104.387 21.4069 105.498 20.6137V15.5469C105.498 14.6768 104.792 13.9706 103.922 13.9706H102.345ZM209.71 2.52681H210.498V1.34457H201.813V2.52681H202.601C203.471 2.52681 204.182 3.23309 204.182 4.10826V19.8972C204.182 20.7672 203.476 21.4735 202.601 21.4735H201.813V22.6557H210.498V21.4735H209.71C208.84 21.4735 208.128 20.7672 208.128 19.8972V4.10826C208.128 3.23821 208.834 2.52681 209.71 2.52681ZM173.393 2.52681H172.604C171.729 2.52681 171.023 3.23821 171.023 4.10826V19.8972C171.023 20.7672 171.734 21.4735 172.604 21.4735H173.393V22.6557H164.707V21.4735H165.496C166.371 21.4735 167.077 20.7672 167.077 19.8972V4.10826C167.077 3.23309 166.366 2.52681 165.496 2.52681H164.707V1.34457H173.393V2.52681ZM191.945 1.34457V2.52681H192.339C193.65 2.52681 194.709 3.58623 194.709 4.89642V16.8366L181.684 1.34457H176.55V2.52681H176.944C178.25 2.52681 179.314 3.58623 179.314 4.89642V19.1039C179.314 20.4141 178.255 21.4735 176.944 21.4735H176.55V22.6557H183.654V21.4735H183.26C181.955 21.4735 180.89 20.4141 180.89 19.1039V6.65189L193.916 22.6557H196.285V4.89131C196.285 3.58111 197.345 2.52169 198.655 2.52169H199.049V1.33944H191.945V1.34457ZM40.5902 17.1406L40.5919 17.1335L40.5817 17.1386L40.5902 17.1406ZM40.3309 18.2338L40.5902 17.1406L41.7332 17.4099L40.7762 21.4786L40.4998 22.6609H24.9668V21.4786H25.755C26.625 21.4786 27.3313 20.7723 27.3313 19.9023V4.11339C27.3313 3.24334 26.625 2.53706 25.755 2.53706H24.9668V1.35481H39.5837L39.6758 2.53706L39.9829 6.39088L38.8006 6.48301L38.775 6.14011L38.7495 5.83303C38.5243 3.97521 36.9479 2.53706 35.0287 2.53706H32.4646C31.8146 2.53706 31.2823 3.06422 31.2823 3.71932V10.823H35.2283C36.1291 10.823 36.8916 10.2191 37.1271 9.39513C37.1782 9.22112 37.2038 9.03687 37.2038 8.8475V8.45343H38.3861V14.769H37.2038V14.3749C37.2038 14.2521 37.1936 14.1344 37.1731 14.0218C37.0093 13.1005 36.2007 12.3994 35.2334 12.3994H31.2875V19.8972C31.2875 20.7672 31.9937 21.4735 32.8638 21.4735H36.6153C38.2632 21.4735 39.6656 20.409 40.1671 18.9299L40.3309 18.2338ZM129.803 17.1335L129.801 17.1417L129.788 17.1386L129.803 17.1335ZM129.801 17.1417L129.542 18.2338L129.378 18.9299C128.877 20.409 127.474 21.4735 125.826 21.4735H122.075C121.205 21.4735 120.499 20.7672 120.499 19.8972V12.3994H124.445C125.412 12.3994 126.22 13.1005 126.384 14.0218C126.405 14.1344 126.415 14.2521 126.415 14.3749V14.769H127.597V8.45343H126.415V8.8475C126.415 9.03687 126.389 9.22112 126.338 9.39513C126.103 10.2191 125.34 10.823 124.439 10.823H120.493V3.71932C120.493 3.06422 121.026 2.53706 121.676 2.53706H124.24C126.159 2.53706 127.735 3.97521 127.961 5.83303L127.986 6.14011L128.012 6.48301L129.194 6.39088L128.887 2.53706L128.79 1.35481H114.173V2.53706H114.961C115.831 2.53706 116.542 3.24334 116.542 4.11339V19.9023C116.542 20.7723 115.836 21.4786 114.961 21.4786H114.173V22.6609H129.706L129.982 21.4786L130.939 17.4099L129.801 17.1417ZM159.774 19.7539L160.055 20.1019L160.071 20.107C160.833 20.9515 161.928 21.4786 163.152 21.4786V22.6609H157.23L149.927 13.208L149.64 12.8395C149.354 12.5682 148.97 12.3994 148.545 12.3994V19.8972C148.545 20.7672 149.256 21.4735 150.126 21.4735H150.915V22.6557H142.229V21.4735H143.018C143.888 21.4735 144.594 20.7672 144.594 19.8972V4.10826C144.594 3.23821 143.888 2.53193 143.018 2.53193H142.229V1.34968H150.915V2.53193H150.126C149.251 2.53193 148.545 3.23821 148.545 4.10826V11.1813C148.857 11.0482 149.159 10.8947 149.441 10.7155L151.309 9.24157L155.997 4.33345L156.288 4.02637C156.381 3.87795 156.432 3.70394 156.432 3.51458C156.432 2.96696 155.992 2.52681 155.444 2.52681H154.85V1.34457H161.954V2.52681H161.754C160.342 2.52681 159.047 3.0386 158.049 3.88819L157.225 4.74801L152.046 10.1679L159.774 19.7539ZM54.9733 0.950475C48.8676 0.950475 43.9185 5.89954 43.9185 12.0053C43.9185 18.111 48.8676 23.0549 54.9733 23.0549C61.079 23.0549 66.023 18.1059 66.023 12.0053C66.023 5.90465 61.0739 0.950475 54.9733 0.950475ZM54.9733 21.8727C51.2679 21.8727 48.2637 17.4559 48.2637 12.0053C48.2637 6.55463 51.2679 2.13784 54.9733 2.13784C58.6787 2.13784 61.683 6.55463 61.683 12.0053C61.683 17.4559 58.6787 21.8727 54.9733 21.8727ZM85.8295 19.7692C86.3515 20.5164 87.0783 21.1101 87.9278 21.4735L87.9381 21.4684C88.1326 21.5503 88.3322 21.6219 88.5369 21.6782V22.6506L85.3791 22.6455H82.728C82.728 22.6455 78.9202 15.987 78.5773 15.3882C78.2344 14.7894 77.9427 14.4721 77.9427 14.4721C77.436 13.9194 76.7093 13.5714 75.9007 13.5714C75.6294 13.5714 75.3633 13.6123 75.1125 13.684V19.8869C75.1125 20.757 75.8188 21.4633 76.6888 21.4633H77.477V22.6455H68.7918V21.4633H69.58C70.45 21.4633 71.1563 20.757 71.1563 19.8869V4.09802C71.1563 3.22797 70.45 2.52169 69.58 2.52169H68.7918V1.33944H79.0533C82.5438 1.33944 85.3689 3.81654 85.3689 6.86684C85.3689 9.3337 83.5213 11.4218 80.9674 12.1332L82.2418 14.1343L85.8295 19.7692ZM75.1176 3.70394V12.3891H76.6888C77.0317 12.3891 77.3644 12.3431 77.6868 12.256C79.606 11.7443 81.034 9.78919 81.034 7.4554C81.034 4.73265 79.0891 2.52169 76.6939 2.52169C76.3971 2.52169 76.1105 2.5524 75.829 2.61893C75.4093 2.80318 75.1176 3.21773 75.1176 3.70394Z" fill="#1D1D1B"/>
</g>
<defs>
<clipPath id="clip0_84_401">
<rect width="210" height="22.1096" fill="white" transform="translate(0.497803 0.945312)"/>
</clipPath>
</defs>
</svg>
