<svg width="211" height="23" viewBox="0 0 211 23" fill="none" xmlns="http://www.w3.org/2000/svg">
<g clip-path="url(#clip0_136_259)">
<path fill-rule="evenodd" clip-rule="evenodd" d="M13.1362 13.1365V11.9543H21.8112V13.1365C20.9411 13.1365 20.2348 13.8428 20.2348 14.7129V20.9005C18.9963 21.3048 17.6759 21.6221 16.2889 21.8422C14.774 22.0878 13.1874 22.2158 11.5497 22.2158C5.44907 22.2158 0.5 17.2718 0.5 11.1661C0.5 5.0604 5.44395 0.111328 11.5497 0.111328C14.0933 0.111328 16.5192 0.423527 18.7199 0.986502C19.1345 1.09398 19.5388 1.20657 19.938 1.3294L20.1734 4.24664L20.3423 6.38595L19.3085 6.46784C19.2522 6.32965 19.1908 6.19658 19.1294 6.06352C17.7782 3.20258 15.3318 1.29358 12.5374 1.29358C8.28441 1.29358 4.84003 5.71038 4.84003 11.161C4.84003 16.6116 8.28441 21.0284 12.5374 21.0284C13.8988 21.0284 15.1783 20.5729 16.2889 19.7796V14.7129C16.2889 13.8428 15.5826 13.1365 14.7126 13.1365H13.1362ZM102.347 13.1366V11.9543H111.027V13.1366C110.157 13.1366 109.451 13.8429 109.451 14.7129V20.9005C108.218 21.3048 106.892 21.6221 105.505 21.8422C103.99 22.0879 102.404 22.2158 100.766 22.2158C94.6602 22.2158 89.7112 17.2719 89.7112 11.1662C89.7112 5.06044 94.6602 0.111368 100.766 0.111368C103.31 0.111368 105.73 0.423567 107.936 0.986542C108.346 1.09402 108.75 1.20661 109.149 1.32944L109.385 4.24668L109.553 6.38599L108.52 6.46788C108.463 6.32969 108.402 6.19662 108.341 6.06356C106.989 3.20262 104.543 1.29362 101.749 1.29362C97.4956 1.29362 94.0512 5.71042 94.0512 11.161C94.0512 16.6117 97.4956 21.0285 101.749 21.0285C103.11 21.0285 104.389 20.573 105.5 19.7797V14.7129C105.5 13.8429 104.794 13.1366 103.924 13.1366H102.347ZM209.712 1.69283H210.5V0.510584H201.815V1.69283H202.603C203.473 1.69283 204.185 2.39911 204.185 3.27428V19.0632C204.185 19.9332 203.478 20.6395 202.603 20.6395H201.815V21.8218H210.5V20.6395H209.712C208.842 20.6395 208.13 19.9332 208.13 19.0632V3.27428C208.13 2.40422 208.837 1.69283 209.712 1.69283ZM173.395 1.69283H172.607C171.732 1.69283 171.025 2.40422 171.025 3.27428V19.0632C171.025 19.9332 171.737 20.6395 172.607 20.6395H173.395V21.8218H164.71V20.6395H165.498C166.373 20.6395 167.079 19.9332 167.079 19.0632V3.27428C167.079 2.39911 166.368 1.69283 165.498 1.69283H164.71V0.510584H173.395V1.69283ZM191.947 0.510584V1.69283H192.341C193.652 1.69283 194.711 2.75224 194.711 4.06244V16.0026L181.686 0.510584H176.553V1.69283H176.947C178.252 1.69283 179.316 2.75224 179.316 4.06244V18.2699C179.316 19.5801 178.257 20.6395 176.947 20.6395H176.553V21.8218H183.656V20.6395H183.262C181.957 20.6395 180.893 19.5801 180.893 18.2699V5.8179L193.918 21.8218H196.287V4.05732C196.287 2.74713 197.347 1.68771 198.657 1.68771H199.051V0.505461H191.947V0.510584ZM40.5924 16.3066L40.5941 16.2995L40.5839 16.3046L40.5924 16.3066ZM40.3331 17.3999L40.5924 16.3066L41.7354 16.5759L40.7784 20.6446L40.502 21.8269H24.969V20.6446H25.7572C26.6272 20.6446 27.3335 19.9384 27.3335 19.0683V3.27941C27.3335 2.40936 26.6272 1.70308 25.7572 1.70308H24.969V0.520829H39.5859L39.678 1.70308L39.9851 5.5569L38.8028 5.64902L38.7772 5.30612L38.7516 4.99904C38.5265 3.14122 36.9501 1.70308 35.0309 1.70308H32.4668C31.8168 1.70308 31.2845 2.23023 31.2845 2.88533V9.98905H35.2305C36.1312 9.98905 36.8938 9.38514 37.1292 8.56114C37.1804 8.38713 37.206 8.20288 37.206 8.01352V7.61944H38.3883V13.935H37.206V13.5409C37.206 13.4181 37.1958 13.3004 37.1753 13.1878C37.0115 12.2665 36.2029 11.5654 35.2356 11.5654H31.2897V19.0632C31.2897 19.9332 31.9959 20.6395 32.866 20.6395H36.6175C38.2654 20.6395 39.6678 19.575 40.1693 18.0959L40.3331 17.3999ZM129.805 16.2995L129.803 16.3078L129.79 16.3046L129.805 16.2995ZM129.803 16.3078L129.544 17.3999L129.38 18.0959C128.879 19.575 127.477 20.6395 125.829 20.6395H122.077C121.207 20.6395 120.501 19.9332 120.501 19.0632V11.5654H124.447C125.414 11.5654 126.223 12.2665 126.386 13.1878C126.407 13.3004 126.417 13.4181 126.417 13.5409V13.935H127.599V7.61944H126.417V8.01352C126.417 8.20288 126.392 8.38713 126.34 8.56114C126.105 9.38514 125.342 9.98905 124.442 9.98905H120.496V2.88533C120.496 2.23023 121.028 1.70308 121.678 1.70308H124.242C126.161 1.70308 127.738 3.14122 127.963 4.99904L127.988 5.30612L128.014 5.64902L129.196 5.5569L128.889 1.70308L128.792 0.520829H114.175V1.70308H114.963C115.833 1.70308 116.545 2.40936 116.545 3.27941V19.0683C116.545 19.9384 115.838 20.6446 114.963 20.6446H114.175V21.8269H129.708L129.984 20.6446L130.941 16.5759L129.803 16.3078ZM159.776 18.9199L160.057 19.2679L160.073 19.273C160.835 20.1175 161.931 20.6446 163.154 20.6446V21.8269H157.232L149.929 12.374L149.642 12.0055C149.356 11.7343 148.972 11.5654 148.547 11.5654V19.0632C148.547 19.9332 149.259 20.6395 150.129 20.6395H150.917V21.8218H142.232V20.6395H143.02C143.89 20.6395 144.596 19.9332 144.596 19.0632V3.27428C144.596 2.40422 143.89 1.69795 143.02 1.69795H142.232V0.515699H150.917V1.69795H150.129C149.253 1.69795 148.547 2.40422 148.547 3.27428V10.3473C148.859 10.2142 149.161 10.0607 149.443 9.88156L151.311 8.40759L155.999 3.49947L156.291 3.19239C156.383 3.04397 156.434 2.86996 156.434 2.68059C156.434 2.13297 155.994 1.69283 155.446 1.69283H154.852V0.510584H161.956V1.69283H161.757C160.344 1.69283 159.049 2.20462 158.051 3.0542L157.227 3.91402L152.048 9.33394L159.776 18.9199ZM54.9756 0.116491C48.8699 0.116491 43.9208 5.06555 43.9208 11.1713C43.9208 17.277 48.8699 22.221 54.9756 22.221C61.0813 22.221 66.0253 17.2719 66.0253 11.1713C66.0253 5.07067 61.0762 0.116491 54.9756 0.116491ZM54.9756 21.0387C51.2702 21.0387 48.2659 16.6219 48.2659 11.1713C48.2659 5.72065 51.2702 1.30385 54.9756 1.30385C58.681 1.30385 61.6852 5.72065 61.6852 11.1713C61.6852 16.6219 58.681 21.0387 54.9756 21.0387ZM85.8317 18.9352C86.3537 19.6825 87.0805 20.2761 87.93 20.6395L87.9403 20.6344C88.1348 20.7163 88.3344 20.7879 88.5391 20.8442V21.8166L85.3813 21.8115H82.7302C82.7302 21.8115 78.9224 15.1531 78.5795 14.5543C78.2366 13.9555 77.9449 13.6381 77.9449 13.6381C77.4382 13.0854 76.7115 12.7374 75.9028 12.7374C75.6316 12.7374 75.3655 12.7783 75.1147 12.85V19.0529C75.1147 19.923 75.821 20.6293 76.691 20.6293H77.4792V21.8115H68.794V20.6293H69.5822C70.4522 20.6293 71.1585 19.923 71.1585 19.0529V3.26404C71.1585 2.39399 70.4522 1.68771 69.5822 1.68771H68.794V0.505461H79.0555C82.546 0.505461 85.3711 2.98255 85.3711 6.03286C85.3711 8.49971 83.5235 10.5878 80.9696 11.2992L82.244 13.3004L85.8317 18.9352ZM75.1198 2.86995V11.5551H76.691C77.0339 11.5551 77.3666 11.5091 77.689 11.4221C79.6082 10.9103 81.0362 8.95521 81.0362 6.62142C81.0362 3.89866 79.0913 1.68771 76.6961 1.68771C76.3993 1.68771 76.1127 1.71842 75.8312 1.78495C75.4115 1.9692 75.1198 2.38375 75.1198 2.86995Z" fill="white"/>
</g>
<defs>
<clipPath id="clip0_136_259">
<rect width="210" height="22.1096" fill="white" transform="translate(0.5 0.111328)"/>
</clipPath>
</defs>
</svg>
