<svg width="210" height="110" viewBox="0 0 210 110" fill="none" xmlns="http://www.w3.org/2000/svg">
<g clip-path="url(#clip0_101_1055)">
<path d="M92.4099 27.6015L94.9075 1.29003C108.46 1.34121 121.178 7.53394 128.471 18.7423L98.7562 35.1095L98.92 36.4248L134.07 17.1301L134.725 18.2919L143.702 11.4645L132.658 14.6274L133.435 16.0042L131.854 16.8793C122.734 3.10179 104.826 -2.63032 87.5018 1.87348C89.4876 1.55105 91.4682 1.3668 93.4386 1.31051L92.4099 27.6015ZM89.4722 43.2061L95.1838 39.3011L98.3877 38.9582L97.5791 35.7237L96.6015 32.6989L95.1327 31.1124L90.5214 29.7663L86.2121 31.4757L83.7657 35.5957L85.3011 40.4629L89.462 43.2061H89.4722ZM136.87 25.6566L136.097 21.3473L133.881 19.208L129.965 21.3985L129.607 23.8193L115.492 32.4533L114.33 33.1544L102.866 37.4638L100.246 39.8078L95.7724 40.2684L91.023 44.025L90.506 47.2339L93.9248 55.0542L95.148 65.0444L89.8919 73.8115L96.3303 75.7563L106.428 73.3765L105.87 68.1562L106.285 67.5778L106.228 65.5869L105.445 65.1314V64.1539L106.31 63.3811L106.274 61.3544L105.486 61.1701V59.8344L107.037 57.3982L107.18 49.9618L104.611 51.1185L106.628 47.0241L109.458 42.592L111.264 40.4015L108.967 45.7395L118.798 39.4291L131.721 27.6885L132.489 28.0621L132.775 27.9085C136.414 39.6031 133.993 52.4594 126.762 62.8693L108.03 52.3263L125.922 64.0413C124.684 65.7047 123.322 67.3015 121.838 68.8113C134.93 57.7309 140.642 40.8826 136.168 26.0558L136.88 25.6669L136.87 25.6566ZM93.9453 64.7937L92.6607 55.4073L88.116 47.669L88.423 44.3679L86.0432 44.4293L82.9878 45.7139L80.4851 48.1552L73.2125 50.7193L72.7211 50.2331L81.2272 46.4458L82.1894 44.8592L85.6235 43.4671L84.2007 42.1365L80.9048 42.9604L79.1954 45.7702L78.3406 46.6249L69.85 49.926L66.2981 55.2743L67.0249 58.9234L73.2688 59.0308L80.5977 56.7687L83.1618 57.3777L89.334 65.1366L89.8202 69.7837L89.7588 70.0242L93.9402 64.7885L93.9453 64.7937Z" fill="white"/>
<path fill-rule="evenodd" clip-rule="evenodd" d="M12.6362 100.553V99.3705H21.3112V100.553C20.4411 100.553 19.7348 101.259 19.7348 102.129V108.317C18.4963 108.721 17.1759 109.038 15.7889 109.258C14.274 109.504 12.6874 109.632 11.0497 109.632C4.94907 109.632 0 104.688 0 98.5824C0 92.4767 4.94395 87.5276 11.0497 87.5276C13.5933 87.5276 16.0192 87.8398 18.2199 88.4028C18.6345 88.5102 19.0388 88.6228 19.438 88.7457L19.6734 91.6629L19.8423 93.8022L18.8085 93.8841C18.7522 93.7459 18.6908 93.6128 18.6294 93.4798C17.2782 90.6188 14.8318 88.7098 12.0374 88.7098C7.78441 88.7098 4.34003 93.1266 4.34003 98.5773C4.34003 104.028 7.78441 108.445 12.0374 108.445C13.3988 108.445 14.6783 107.989 15.7889 107.196V102.129C15.7889 101.259 15.0826 100.553 14.2126 100.553H12.6362ZM101.847 100.553V99.3706H110.527V100.553C109.657 100.553 108.951 101.259 108.951 102.129V108.317C107.718 108.721 106.392 109.038 105.005 109.258C103.49 109.504 101.904 109.632 100.266 109.632C94.1602 109.632 89.2112 104.688 89.2112 98.5824C89.2112 92.4767 94.1602 87.5276 100.266 87.5276C102.81 87.5276 105.23 87.8398 107.436 88.4028C107.846 88.5103 108.25 88.6229 108.649 88.7457L108.885 91.6629L109.053 93.8022L108.02 93.8841C107.963 93.746 107.902 93.6129 107.841 93.4798C106.489 90.6189 104.043 88.7099 101.249 88.7099C96.9956 88.7099 93.5512 93.1267 93.5512 98.5773C93.5512 104.028 96.9956 108.445 101.249 108.445C102.61 108.445 103.889 107.989 105 107.196V102.129C105 101.259 104.294 100.553 103.424 100.553H101.847ZM209.212 89.1091H210V87.9268H201.315V89.1091H202.103C202.973 89.1091 203.685 89.8154 203.685 90.6905V106.479C203.685 107.349 202.978 108.056 202.103 108.056H201.315V109.238H210V108.056H209.212C208.342 108.056 207.63 107.349 207.63 106.479V90.6905C207.63 89.8205 208.337 89.1091 209.212 89.1091ZM172.895 89.1091H172.107C171.232 89.1091 170.525 89.8205 170.525 90.6905V106.479C170.525 107.349 171.237 108.056 172.107 108.056H172.895V109.238H164.21V108.056H164.998C165.873 108.056 166.579 107.349 166.579 106.479V90.6905C166.579 89.8154 165.868 89.1091 164.998 89.1091H164.21V87.9268H172.895V89.1091ZM191.447 87.9268V89.1091H191.841C193.152 89.1091 194.211 90.1685 194.211 91.4787V103.419L181.186 87.9268H176.053V89.1091H176.447C177.752 89.1091 178.816 90.1685 178.816 91.4787V105.686C178.816 106.996 177.757 108.056 176.447 108.056H176.053V109.238H183.156V108.056H182.762C181.457 108.056 180.393 106.996 180.393 105.686V93.2342L193.418 109.238H195.787V91.4736C195.787 90.1634 196.847 89.104 198.157 89.104H198.551V87.9217H191.447V87.9268ZM40.0924 103.723L40.0941 103.716L40.0839 103.721L40.0924 103.723ZM39.8331 104.816L40.0924 103.723L41.2354 103.992L40.2784 108.061L40.002 109.243H24.469V108.061H25.2572C26.1272 108.061 26.8335 107.355 26.8335 106.485V90.6957C26.8335 89.8256 26.1272 89.1193 25.2572 89.1193H24.469V87.9371H39.0859L39.178 89.1193L39.4851 92.9732L38.3028 93.0653L38.2772 92.7224L38.2516 92.4153C38.0265 90.5575 36.4501 89.1193 34.5309 89.1193H31.9668C31.3168 89.1193 30.7845 89.6465 30.7845 90.3016V97.4053H34.7305C35.6312 97.4053 36.3938 96.8014 36.6292 95.9774C36.6804 95.8034 36.706 95.6191 36.706 95.4298V95.0357H37.8883V101.351H36.706V100.957C36.706 100.834 36.6958 100.717 36.6753 100.604C36.5115 99.6828 35.7029 98.9816 34.7356 98.9816H30.7897V106.479C30.7897 107.35 31.4959 108.056 32.366 108.056H36.1175C37.7654 108.056 39.1678 106.991 39.6693 105.512L39.8331 104.816ZM129.305 103.716L129.303 103.724L129.29 103.721L129.305 103.716ZM129.303 103.724L129.044 104.816L128.88 105.512C128.379 106.991 126.977 108.056 125.329 108.056H121.577C120.707 108.056 120.001 107.35 120.001 106.479V98.9816H123.947C124.914 98.9816 125.723 99.6828 125.886 100.604C125.907 100.717 125.917 100.834 125.917 100.957V101.351H127.099V95.0357H125.917V95.4298C125.917 95.6191 125.892 95.8034 125.84 95.9774C125.605 96.8014 124.842 97.4053 123.942 97.4053H119.996V90.3016C119.996 89.6465 120.528 89.1193 121.178 89.1193H123.742C125.661 89.1193 127.238 90.5575 127.463 92.4153L127.488 92.7224L127.514 93.0653L128.696 92.9732L128.389 89.1193L128.292 87.9371H113.675V89.1193H114.463C115.333 89.1193 116.045 89.8256 116.045 90.6957V106.485C116.045 107.355 115.338 108.061 114.463 108.061H113.675V109.243H129.208L129.484 108.061L130.441 103.992L129.303 103.724ZM159.276 106.336L159.557 106.684L159.573 106.689C160.335 107.534 161.431 108.061 162.654 108.061V109.243H156.732L149.429 99.7903L149.142 99.4218C148.856 99.1505 148.472 98.9816 148.047 98.9816V106.479C148.047 107.349 148.759 108.056 149.629 108.056H150.417V109.238H141.732V108.056H142.52C143.39 108.056 144.096 107.349 144.096 106.479V90.6905C144.096 89.8205 143.39 89.1142 142.52 89.1142H141.732V87.932H150.417V89.1142H149.629C148.753 89.1142 148.047 89.8205 148.047 90.6905V97.7636C148.359 97.6305 148.661 97.477 148.943 97.2978L150.811 95.8238L155.499 90.9157L155.791 90.6086C155.883 90.4602 155.934 90.2862 155.934 90.0969C155.934 89.5492 155.494 89.1091 154.946 89.1091H154.352V87.9268H161.456V89.1091H161.257C159.844 89.1091 158.549 89.6209 157.551 90.4705L156.727 91.3303L151.548 96.7502L159.276 106.336ZM54.4756 87.5328C48.3699 87.5328 43.4208 92.4818 43.4208 98.5875C43.4208 104.693 48.3699 109.637 54.4756 109.637C60.5813 109.637 65.5253 104.688 65.5253 98.5875C65.5253 92.4869 60.5762 87.5328 54.4756 87.5328ZM54.4756 108.455C50.7702 108.455 47.7659 104.038 47.7659 98.5875C47.7659 93.1369 50.7702 88.7201 54.4756 88.7201C58.181 88.7201 61.1852 93.1369 61.1852 98.5875C61.1852 104.038 58.181 108.455 54.4756 108.455ZM85.3317 106.351C85.8537 107.099 86.5805 107.692 87.43 108.056L87.4403 108.051C87.6348 108.133 87.8344 108.204 88.0391 108.26V109.233L84.8813 109.228H82.2302C82.2302 109.228 78.4224 102.569 78.0795 101.971C77.7366 101.372 77.4449 101.054 77.4449 101.054C76.9382 100.502 76.2115 100.154 75.4028 100.154C75.1316 100.154 74.8655 100.195 74.6147 100.266V106.469C74.6147 107.339 75.321 108.046 76.191 108.046H76.9792V109.228H68.294V108.046H69.0822C69.9522 108.046 70.6585 107.339 70.6585 106.469V90.6803C70.6585 89.8102 69.9522 89.104 69.0822 89.104H68.294V87.9217H78.5555C82.046 87.9217 84.8711 90.3988 84.8711 93.4491C84.8711 95.916 83.0235 98.0041 80.4696 98.7155L81.744 100.717L85.3317 106.351ZM74.6198 90.2862V98.9714H76.191C76.5339 98.9714 76.8666 98.9253 77.189 98.8383C79.1082 98.3265 80.5362 96.3715 80.5362 94.0377C80.5362 91.3149 78.5913 89.104 76.1961 89.104C75.8993 89.104 75.6127 89.1347 75.3312 89.2012C74.9115 89.3855 74.6198 89.8 74.6198 90.2862Z" fill="white"/>
</g>
<defs>
<clipPath id="clip0_101_1055">
<rect width="210" height="109.274" fill="white" transform="translate(0 0.363037)"/>
</clipPath>
</defs>
</svg>
